<svg width="30" height="32" viewBox="0 0 30 32" fill="none" xmlns="http://www.w3.org/2000/svg">
<g clip-path="url(#clip0_212_13382)">
<path d="M14.6479 -0.000522925C10.0512 -0.0809923 5.89662 1.86177 2.98203 5.01924C1.87689 6.21478 0.951562 7.58276 0.247266 9.08486C-0.554432 10.7939 0.69307 12.775 2.54747 12.775H2.71605C3.69757 12.775 4.57419 12.1848 5.00875 11.2844C5.46954 10.3264 6.06894 9.45272 6.77699 8.68251C8.75875 6.54049 11.5984 5.23382 14.7378 5.34878C20.0125 5.54037 24.3769 9.83207 24.7553 15.2197C24.9725 18.3657 23.8562 21.2511 21.9193 23.3356L21.2113 24.7841C20.8741 25.4738 20.8629 26.2823 21.1813 26.9759L22.2528 29.3325L17.0043 27.3782C16.6746 27.2556 16.3374 27.1522 16.0003 27.064L14.4193 26.6617H14.3594C11.3624 26.6617 8.66135 25.3703 6.75826 23.2973C6.15511 22.6382 5.63063 21.9025 5.20356 21.1055C4.75026 20.2509 3.87739 19.7183 2.92958 19.7183H2.88463C0.940323 19.7183 -0.33715 21.845 0.584429 23.5962C1.23253 24.8185 2.03048 25.9451 2.95206 26.9529C5.80671 30.0567 9.86015 31.9995 14.3594 31.9995C23.0769 31.9995 30.1274 24.7074 30 15.76C29.8726 7.18425 23.0282 0.156584 14.6479 -0.000522925Z" fill="#43A43C"/>
<path d="M14.3145 24.7194C17.229 24.635 19.3869 23.6273 21.0727 21.6002C21.4248 21.1787 21.7208 20.7227 21.7245 20.1326C21.732 19.462 21.3462 18.9064 20.7206 18.6918C20.0874 18.4734 19.533 18.6612 19.1246 19.2398C18.0832 20.7304 16.6821 21.5542 14.8914 21.6845C11.9993 21.8953 9.31321 19.4735 9.1671 16.5115C9.02475 13.6452 10.7255 11.3154 13.4453 10.641C15.5133 10.1314 17.761 11.0051 19.0834 12.9402C19.6903 13.8253 20.8741 13.7449 21.4436 12.9938C21.8145 12.5072 21.8444 11.7906 21.4511 11.1698C20.6306 9.867 19.4805 8.93968 18.1132 8.29976C13.3966 6.0926 7.93084 8.68295 6.50352 13.787C5.21106 18.4006 7.98329 23.2977 12.5462 24.432C13.2243 24.6006 13.9248 24.6619 14.307 24.7232L14.3145 24.7194Z" fill="#43A43C"/>
</g>
<defs>
<clipPath id="clip0_212_13382">
<rect width="30" height="32" fill="white"/>
</clipPath>
</defs>
</svg>
