<svg width="490" height="437" viewBox="0 0 490 437" fill="none" xmlns="http://www.w3.org/2000/svg">
<path d="M490 211.953C490 269.335 403.933 436.374 296.056 436.374C188.179 436.374 21.7642 339.986 21.7642 282.604C21.7642 225.222 30.2532 0 138.13 0C246.008 0 490 154.571 490 211.953Z" fill="#EFFFED"/>
<path d="M141.8 334.004L120.156 343.28L124.794 358.74L146.439 354.102L141.8 334.004Z" fill="#FD9E9B" stroke="#FD9E9B" stroke-width="3.08939"/>
<path d="M115.518 367.017L106.242 340.734C109.895 337.941 115.856 337.945 118.61 340.734C120.782 342.935 123.589 354.37 124.794 356.194C127.645 360.512 121.47 368.333 115.518 367.017Z" fill="black" stroke="black" stroke-width="3.08939"/>
<path d="M115.518 258.247L126.34 221.143L147.985 230.419L141.8 255.155L149.531 259.793L151.077 279.891L117.064 267.523C114.358 266.327 113.412 264.972 115.518 258.247Z" fill="#FD9E9B" stroke="#FD9E9B" stroke-width="3.08939"/>
<path d="M273.212 258.247L262.86 221.143L242.157 230.419L248.072 255.155L240.678 259.793L239.2 279.891L271.733 267.523C274.69 266.28 275.331 264.66 273.212 258.247Z" fill="#FD9E9B" stroke="#FD9E9B" stroke-width="3.08939"/>
<path d="M185.741 177.418C187.384 173.997 187.532 172.042 187.308 168.539C193.09 169.754 196.335 169.417 202.456 167.494C202.781 171.743 203.031 174.549 204.023 177.418C197.062 187.084 193.008 185.246 185.741 177.418Z" fill="#E09D77"/>
<path d="M186.708 128.661L179.395 131.273L177.828 149.032C165.817 121.872 181.484 108.292 208.646 117.692C206.034 111.426 208.124 111.426 211.257 119.259C217.526 117.694 217.003 119.783 211.78 121.349C218.034 133.019 217.271 138.841 211.78 148.51C210.816 140.429 210.098 135.917 206.034 128.139C194.411 133.223 194.298 132.089 197.154 128.139C184.642 132.27 179.978 133.501 186.708 128.661Z" fill="#AC3E00" stroke="#AC3E00" stroke-width="1.04377"/>
<path d="M177.774 153.92C167.997 151.306 171.438 137 177.57 146.797C177.626 146.886 177.775 146.858 177.775 146.752C177.792 140.553 177.895 136.915 179.341 129.893C182.342 127.8 184.004 126.67 187.176 126.759C181.177 130.961 183.353 130.96 197.101 126.759C194.821 129.807 195.084 130.72 206.503 126.759C209.894 134.128 210.828 138.366 211.701 145.87C211.711 145.956 211.821 145.992 211.884 145.932C217.314 140.79 223.116 147.717 211.726 154.442C202.855 176.903 181.962 172.724 177.774 153.92Z" fill="#EEB08D" stroke="#EEB08D" stroke-width="1.04377"/>
<path d="M202.459 154.957C196.516 157.824 193.212 157.261 187.311 156.002C188.878 159.136 191.597 161.07 195.146 160.703C198.19 160.388 201.937 157.569 202.459 154.957Z" fill="#574A42" stroke="#574A42" stroke-width="1.04377" stroke-linecap="round"/>
<path d="M195.669 139.289C196.035 144.627 198.281 152.347 197.236 153.392C196.192 154.437 193.58 153.392 193.58 153.392" stroke="#AC3E00" stroke-width="1.04377" stroke-linecap="round"/>
<path d="M183.144 135.633C185.157 133.595 187.323 133.543 188.89 133.543" stroke="#AC3E00" stroke-width="1.04377" stroke-linecap="round"/>
<path d="M199.328 133.637C202.165 133.24 203.917 134.515 205.162 135.466" stroke="#AC3E00" stroke-width="1.04377" stroke-linecap="round"/>
<ellipse cx="187.308" cy="141.901" rx="1.567" ry="2.61166" fill="#574A42"/>
<ellipse cx="202.466" cy="141.901" rx="1.567" ry="2.61166" fill="#574A42"/>
<path d="M203.641 176.308C196.957 187.324 192.685 185.935 185.089 176.308C147.472 171.446 138.128 187.161 123.248 218.051L144.893 228.873L147.985 225.781L237.654 224.235L243.838 228.873L263.936 218.051C247.901 182.762 234.809 172.418 203.641 176.308Z" fill="#00A82D" stroke="#00A82D" stroke-width="3.08939"/>
<path d="M112.422 275.254L208.275 287.622L231.466 286.076L240.742 281.438C275.495 268.544 286.21 270.272 290.214 287.622C293.745 303.193 291.831 312.405 271.662 330.91L147.981 355.647L141.797 330.91C123.129 333.305 115.605 330.554 104.692 321.634C86.4693 295.553 85.1459 284.217 112.422 275.254Z" fill="#273041"/>
<path d="M141.797 330.91C123.129 333.305 115.605 330.554 104.692 321.634C86.4693 295.553 85.1459 284.217 112.422 275.254L208.275 287.622L231.466 286.076M141.797 330.91L147.981 355.647L271.662 330.91C291.831 312.405 293.745 303.193 290.214 287.622C286.21 270.272 275.495 268.544 240.742 281.438L231.466 286.076M141.797 330.91L231.466 286.076" stroke="#273041" stroke-width="3.08939"/>
<path d="M152.472 284.689L149.694 230.517C149.605 228.772 150.979 227.3 152.726 227.27L235.977 225.835C237.735 225.805 239.163 227.244 239.119 229.001L237.729 284.608C237.687 286.283 236.317 287.62 234.64 287.62H155.558C153.913 287.62 152.556 286.331 152.472 284.689Z" fill="white" stroke="white" stroke-width="3.08939"/>
<circle cx="192.819" cy="258.249" r="6.18407" fill="#00A82D"/>
<rect x="273.141" y="107.734" width="117.529" height="63.1183" rx="5.43641" fill="white" stroke="#00A82D" stroke-width="2.17456"/>
<rect x="278.583" y="115.354" width="104.469" height="4.35286" rx="2.17456" fill="#B8BDCC"/>
<rect x="278.583" y="128.412" width="104.469" height="4.35286" rx="2.17456" fill="#B8BDCC"/>
<rect x="278.583" y="141.469" width="73.9985" height="4.35286" rx="2.17456" fill="#B8BDCC"/>
<rect x="278.583" y="156.705" width="43.5286" height="10.8821" rx="2.17456" fill="#00A82D"/>
<rect x="339.523" y="156.705" width="43.5286" height="10.8821" rx="2.17456" fill="#00A82D"/>
<rect x="322.111" y="287.287" width="119.704" height="65.2928" rx="6.52369" fill="#F0F2F8"/>
<rect x="359.111" y="295.994" width="43.5286" height="4.35286" rx="2.17456" fill="#9EA4B5"/>
<rect x="328.641" y="309.053" width="104.469" height="4.35286" rx="2.17456" fill="#B8BDCC"/>
<rect x="328.641" y="322.109" width="73.9985" height="4.35286" rx="2.17456" fill="#B8BDCC"/>
<rect x="328.641" y="337.346" width="43.5286" height="10.8821" rx="2.17456" fill="#00A82D"/>
<rect x="389.581" y="337.346" width="43.5286" height="10.8821" rx="2.17456" fill="#00A82D"/>
<rect y="132.762" width="119.704" height="65.2928" rx="6.52369" fill="#F0F2F8"/>
<rect x="6.5293" y="141.467" width="104.469" height="4.35286" rx="2.17456" fill="#B8BDCC"/>
<rect x="6.5293" y="154.527" width="104.469" height="4.35286" rx="2.17456" fill="#B8BDCC"/>
<rect x="6.5293" y="167.584" width="73.9985" height="4.35286" rx="2.17456" fill="#B8BDCC"/>
<rect x="6.5293" y="182.82" width="43.5286" height="10.8821" rx="2.17456" fill="#00A82D"/>
</svg>
