<svg width="490" height="457" viewBox="0 0 490 457" fill="none" xmlns="http://www.w3.org/2000/svg">
<path d="M490 221.805C490 281.854 399.933 456.657 287.041 456.657C174.15 456.657 0 355.789 0 295.74C0 235.691 8.88357 0 121.775 0C234.667 0 490 161.756 490 221.805Z" fill="#EFFFED"/>
<path d="M102.84 349.527L80.1895 359.235L85.0431 375.413L107.693 370.56L102.84 349.527Z" fill="#FD9E9B" stroke="#FD9E9B" stroke-width="3.23576"/>
<path d="M75.3358 384.076L65.6285 356.572C69.4514 353.649 75.6894 353.652 78.5716 356.572C80.8449 358.874 83.7824 370.841 85.0431 372.751C88.0262 377.268 81.5643 385.454 75.3358 384.076Z" fill="black" stroke="black" stroke-width="3.23576"/>
<path d="M75.3358 270.251L86.6609 231.422L109.311 241.129L102.84 267.015L110.929 271.869L112.547 292.901L76.9537 279.958C73.9308 279.174 72.8133 278.007 75.3358 270.251Z" fill="#FD9E9B" stroke="#FD9E9B" stroke-width="3.23576"/>
<path d="M240.36 270.251L229.527 231.422L207.861 241.129L214.051 267.015L206.314 271.869L204.766 292.901L238.812 279.958C241.795 279.742 242.698 278.392 240.36 270.251Z" fill="#FD9E9B" stroke="#FD9E9B" stroke-width="3.23576"/>
<path d="M148.823 185.665C150.542 182.084 150.697 180.039 150.463 176.373C156.514 177.644 159.909 177.291 166.315 175.279C166.655 179.725 166.916 182.662 167.954 185.665C160.67 195.779 156.427 193.856 148.823 185.665Z" fill="#E09D77"/>
<path d="M149.834 134.641L142.182 137.374L140.542 155.959C127.973 127.537 144.368 113.325 172.792 123.162C170.059 116.604 172.246 116.604 175.525 124.802C182.085 123.164 181.538 125.35 176.071 126.989C182.617 139.201 181.818 145.294 176.071 155.412C175.063 146.955 174.312 142.234 170.059 134.095C157.896 139.415 157.778 138.228 160.766 134.095C147.672 138.418 142.792 139.706 149.834 134.641Z" fill="#AC3E00" stroke="#AC3E00" stroke-width="1.09322"/>
<path d="M140.486 161.073C130.255 158.338 133.855 143.367 140.272 153.619C140.331 153.713 140.486 153.683 140.487 153.572C140.504 147.085 140.612 143.278 142.126 135.929C145.266 133.739 147.005 132.556 150.325 132.65C144.047 137.048 146.324 137.046 160.71 132.65C158.325 135.839 158.6 136.795 170.549 132.65C174.098 140.361 175.076 144.796 175.989 152.649C176 152.739 176.115 152.777 176.181 152.714C181.863 147.333 187.935 154.582 176.015 161.62C166.732 185.124 144.868 180.751 140.486 161.073Z" fill="#EEB08D" stroke="#EEB08D" stroke-width="1.09322"/>
<path d="M166.318 162.16C160.098 165.16 156.641 164.571 150.466 163.253C152.106 166.533 154.951 168.557 158.665 168.173C161.85 167.843 165.771 164.893 166.318 162.16Z" fill="#574A42" stroke="#574A42" stroke-width="1.09322" stroke-linecap="round"/>
<path d="M159.213 145.764C159.595 151.35 161.946 159.429 160.852 160.522C159.759 161.615 157.026 160.522 157.026 160.522" stroke="#AC3E00" stroke-width="1.09322" stroke-linecap="round"/>
<path d="M146.105 141.937C148.211 139.804 150.478 139.751 152.118 139.75" stroke="#AC3E00" stroke-width="1.09322" stroke-linecap="round"/>
<path d="M163.041 139.851C166.01 139.436 167.843 140.77 169.146 141.765" stroke="#AC3E00" stroke-width="1.09322" stroke-linecap="round"/>
<ellipse cx="150.463" cy="148.497" rx="1.63983" ry="2.73306" fill="#574A42"/>
<ellipse cx="166.326" cy="148.497" rx="1.63983" ry="2.73306" fill="#574A42"/>
<path d="M167.555 184.505C160.56 196.032 156.09 194.579 148.14 184.505C108.775 179.417 98.997 195.862 83.4252 228.188L106.075 239.513L109.311 236.277L203.148 234.659L209.62 239.513L230.652 228.188C213.872 191.258 200.171 180.433 167.555 184.505Z" fill="#00A82D" stroke="#00A82D" stroke-width="3.23576"/>
<path d="M72.0961 288.05L172.405 300.993L196.673 299.375L206.38 294.522C242.748 281.029 253.961 282.837 258.152 300.993C261.847 317.288 259.844 326.928 238.738 346.294L109.307 372.18L102.836 346.294C83.3 348.8 75.4269 345.921 64.0067 336.586C44.9367 309.293 43.5518 297.431 72.0961 288.05Z" fill="#273041"/>
<path d="M102.836 346.294C83.3 348.8 75.4269 345.921 64.0067 336.586C44.9367 309.293 43.5518 297.431 72.096 288.05L172.405 300.993L196.673 299.375M102.836 346.294L109.307 372.18L238.738 346.294C259.844 326.928 261.847 317.288 258.152 300.993C253.961 282.837 242.748 281.029 206.38 294.522L196.673 299.375M102.836 346.294L196.673 299.375" stroke="#273041" stroke-width="3.23576"/>
<path d="M114.007 297.921L111.101 241.237C111.007 239.409 112.446 237.867 114.276 237.836L201.391 236.334C203.232 236.302 204.728 237.81 204.682 239.65L203.227 297.836C203.183 299.591 201.748 300.991 199.992 300.991H117.239C115.516 300.991 114.096 299.641 114.007 297.921Z" fill="white" stroke="white" stroke-width="3.23576"/>
<circle cx="156.23" cy="270.251" r="6.47152" fill="#00A82D"/>
<rect x="282.421" y="193.596" width="120.712" height="13.6655" rx="2.27759" fill="#00A82D"/>
<rect x="282.421" y="216.371" width="120.712" height="13.6655" rx="2.27759" fill="#9EA4B5"/>
<rect x="282.421" y="239.146" width="120.712" height="13.6655" rx="2.27759" fill="#9EA4B5"/>
<circle cx="266.478" cy="200.428" r="6.83277" fill="#00A82D"/>
<circle cx="266.478" cy="223.204" r="6.83277" fill="#9EA4B5"/>
<circle cx="266.478" cy="245.979" r="6.83277" fill="#9EA4B5"/>
<path d="M409.966 198.149L415.352 203.535C415.524 203.707 415.802 203.713 415.982 203.548L429.326 191.316" stroke="#00A82D" stroke-width="2.73311" stroke-linecap="round"/>
</svg>
