<svg width="222" height="174" viewBox="0 0 222 174" fill="none" xmlns="http://www.w3.org/2000/svg">
<path d="M185.135 113.523L184.054 113.228L183.198 113.952C157.701 135.522 118.467 119.675 115.102 86.4483L114.676 82.2418C112.192 57.7114 130.473 35.9779 155.067 34.2184C185.79 32.0204 209.107 61.4181 199.965 90.8305L196.438 102.178L196.3 102.622L196.359 103.082L198.165 117.087L185.135 113.523Z" fill="#EFFFED" stroke="#00A82D" stroke-width="4.25816"/>
<path d="M181.177 112.554L186.162 113.813" stroke="#00A82D" stroke-width="4.25816"/>
<rect x="180.91" y="113.125" width="4.42977" height="4.59809" transform="rotate(-120.305 180.91 113.125)" fill="#EFFFED"/>
<path d="M58.8559 81.3573L59.094 80.2621L58.3258 79.4459C35.4367 55.1261 49.185 15.108 82.1876 9.98996L86.3656 9.34203C110.73 5.56356 133.401 22.6695 136.459 47.1355C140.279 77.6992 112.156 102.539 82.3016 94.966L70.7831 92.0441L70.3329 91.9299L69.876 92.0136L55.9862 94.558L58.8559 81.3573Z" fill="white" stroke="#00A82D" stroke-width="4.25816"/>
<path d="M59.616 77.3558L58.6228 82.4009" stroke="#00A82D" stroke-width="4.25816"/>
<rect x="59.0273" y="77.1167" width="4.42977" height="4.59809" transform="rotate(-33.3383 59.0273 77.1167)" fill="white"/>
<circle cx="72.3871" cy="51.098" r="4.25816" fill="#00A82D"/>
<path d="M82.3242 67.4221C86.5824 59.6141 97.9375 60.3238 102.196 67.4221" stroke="#00A82D" stroke-width="4.25816" stroke-linecap="round"/>
<circle cx="110.711" cy="51.098" r="4.25816" fill="#00A82D"/>
<circle cx="178.84" cy="80.9051" r="4.25816" fill="#00A82D"/>
<circle cx="158.969" cy="80.9051" r="4.25816" fill="#00A82D"/>
<circle cx="139.098" cy="80.9051" r="4.25816" fill="#00A82D"/>
<ellipse cx="109.292" cy="152.584" rx="34.0653" ry="6.38724" fill="#F0F2F8"/>
</svg>
