<svg width="251" height="209" viewBox="0 0 251 209" fill="none" xmlns="http://www.w3.org/2000/svg">
<circle cx="123.248" cy="97.8569" r="97.3159" fill="#9B9B9B" fill-opacity="0.1"/>
<path d="M219.261 182.682L219.636 186.926L223.89 186.689L220.402 189.136L222.734 192.701L218.871 190.904L216.949 194.706L216.574 190.462L212.32 190.699L215.809 188.252L213.476 184.686L217.339 186.484L219.261 182.682Z" fill="#9B9B9B" fill-opacity="0.4"/>
<path d="M17.0742 14.6646L21.9616 33.3077L3.37258 28.2188L17.0742 14.6646Z" fill="#EAEAEA"/>
<path d="M238.25 96.7545L245.104 95.4092L248.501 101.512L243.747 106.629L237.411 103.689L238.25 96.7545Z" fill="#9B9B9B" fill-opacity="0.4"/>
<path d="M155.647 90.2311L150.624 107.515C148.634 114.364 145.099 116.307 138.25 114.317L130.032 111.929C123.184 109.938 121.24 106.403 123.231 99.5543L128.652 80.9004C130.642 74.0519 134.177 72.1086 141.026 74.0989L147.874 76.0891" fill="white"/>
<path d="M155.647 90.2311L150.624 107.515C148.634 114.364 145.099 116.307 138.25 114.317L130.032 111.929C123.184 109.938 121.24 106.403 123.231 99.5543L128.652 80.9004C130.642 74.0519 134.177 72.1086 141.026 74.0989L147.874 76.0891" stroke="#D6DCE8" stroke-width="1.5" stroke-linecap="round" stroke-linejoin="round"/>
<path d="M155.648 90.2318L150.169 88.6396C146.06 87.4454 145.089 85.6777 146.283 81.5686L147.875 76.0898L155.648 90.2318Z" fill="white" stroke="#D6DCE8" stroke-width="1.5" stroke-linecap="round" stroke-linejoin="round"/>
<path d="M137.172 105.603C137.075 105.935 136.875 106.192 136.571 106.374C136.272 106.542 135.945 106.574 135.592 106.471C135.251 106.373 135 106.172 134.837 105.87C134.674 105.567 134.643 105.243 134.743 104.897C134.848 104.537 135.05 104.274 135.35 104.106C135.653 103.924 135.975 103.882 136.315 103.981C136.655 104.08 136.905 104.287 137.064 104.604C137.236 104.924 137.272 105.257 137.172 105.603ZM137.775 100.939C137.749 100.977 137.72 101.051 137.688 101.162C137.656 101.272 137.653 101.511 137.678 101.879C137.351 101.889 137.079 101.862 136.861 101.799C136.29 101.633 136.1 101.218 136.293 100.554C136.543 99.696 137.196 98.9707 138.253 98.3777L139.602 97.6218C140.659 97.0289 141.321 96.2758 141.586 95.3627C142 93.9377 141.656 93.065 140.554 92.7448C139.929 92.563 139.331 92.6894 138.762 93.1243C138.346 93.4385 138.042 93.9277 137.849 94.5918C137.785 94.8131 137.737 95.0543 137.705 95.3152C137.436 95.327 137.193 95.3013 136.975 95.2381C136.757 95.1748 136.574 95.0691 136.426 94.9208C136.159 94.6184 136.095 94.232 136.231 93.7616C136.469 92.9453 137.02 92.3929 137.886 92.1044C138.752 91.8158 139.708 91.8238 140.756 92.1282C143.136 92.82 144.039 94.1551 143.464 96.1336C143.283 96.7562 142.891 97.3175 142.289 97.8175C141.7 98.3215 141.1 98.7099 140.49 98.9826C138.844 99.7198 137.939 100.372 137.775 100.939Z" fill="#D6DCE8"/>
<g opacity="0.75">
<path d="M176.622 59.6108L175.361 66.2336C174.861 68.8577 173.612 69.7076 170.988 69.208L167.839 68.6086C165.215 68.109 164.365 66.8596 164.864 64.2355L166.225 57.0878C166.725 54.4637 167.974 53.6139 170.598 54.1134L173.222 54.6129" fill="white"/>
<path d="M176.622 59.6108L175.361 66.2336C174.861 68.8577 173.612 69.7076 170.988 69.208L167.839 68.6086C165.215 68.109 164.365 66.8596 164.864 64.2355L166.225 57.0878C166.725 54.4637 167.974 53.6139 170.598 54.1134L173.222 54.6129" stroke="#D6DCE8" stroke-width="1.5" stroke-linecap="round" stroke-linejoin="round"/>
<path d="M176.622 59.6131L174.523 59.2135C172.948 58.9137 172.523 58.289 172.823 56.7145L173.223 54.6152L176.622 59.6131Z" fill="white" stroke="#D6DCE8" stroke-width="1.5" stroke-linecap="round" stroke-linejoin="round"/>
<path d="M170.277 65.9998C170.253 66.1271 170.187 66.23 170.08 66.3085C169.975 66.3818 169.854 66.4055 169.718 66.3797C169.588 66.3549 169.487 66.289 169.416 66.182C169.344 66.075 169.321 65.9553 169.346 65.8227C169.373 65.6849 169.439 65.5793 169.544 65.5061C169.651 65.4275 169.77 65.4007 169.9 65.4255C170.03 65.4503 170.131 65.5188 170.201 65.6311C170.277 65.7444 170.302 65.8673 170.277 65.9998ZM170.336 64.2396C170.328 64.2545 170.32 64.2832 170.312 64.3256C170.304 64.368 170.311 64.4573 170.334 64.5934C170.212 64.6087 170.11 64.6084 170.026 64.5925C169.807 64.5508 169.722 64.4028 169.77 64.1483C169.833 63.8196 170.051 63.526 170.424 63.2675L170.9 62.9379C171.273 62.6793 171.493 62.3751 171.56 62.0252C171.664 61.4792 171.505 61.166 171.083 61.0856C170.843 61.04 170.625 61.1083 170.428 61.2906C170.284 61.4225 170.188 61.6157 170.139 61.8701C170.123 61.9549 170.114 62.0466 170.111 62.145C170.011 62.1589 169.92 62.1579 169.836 62.1421C169.753 62.1262 169.681 62.0932 169.62 62.0432C169.51 61.9399 169.472 61.7981 169.507 61.6179C169.566 61.3051 169.752 61.0796 170.065 60.9413C170.378 60.8031 170.735 60.7721 171.136 60.8485C172.048 61.0222 172.432 61.4881 172.288 62.2461C172.242 62.4847 172.116 62.7079 171.909 62.9157C171.707 63.1245 171.497 63.2905 171.28 63.4138C170.692 63.747 170.378 64.0222 170.336 64.2396Z" fill="#D6DCE8"/>
</g>
<g opacity="0.6">
<path d="M168.967 35.5024L169.926 40.4383C170.306 42.394 169.675 43.3283 167.72 43.7081L165.373 44.1639C163.417 44.5437 162.483 43.9133 162.103 41.9576L161.068 36.6306C160.689 34.6749 161.319 33.7406 163.275 33.3608L165.23 32.981" fill="white"/>
<path d="M168.967 35.5024L169.926 40.4383C170.306 42.394 169.675 43.3283 167.72 43.7081L165.373 44.1639C163.417 44.5437 162.483 43.9133 162.103 41.9576L161.068 36.6306C160.689 34.6749 161.319 33.7406 163.275 33.3608L165.23 32.981" stroke="#D6DCE8" stroke-width="1.5" stroke-linecap="round" stroke-linejoin="round"/>
<path d="M168.968 35.5019L167.403 35.8058C166.23 36.0337 165.763 35.7185 165.535 34.545L165.231 32.9805L168.968 35.5019Z" fill="white" stroke="#D6DCE8" stroke-width="1.5" stroke-linecap="round" stroke-linejoin="round"/>
<path d="M166.34 41.6805C166.358 41.7753 166.342 41.8647 166.289 41.9487C166.236 42.0287 166.159 42.0785 166.058 42.0981C165.961 42.1169 165.873 42.0992 165.794 42.0449C165.715 41.9905 165.666 41.914 165.647 41.8152C165.627 41.7125 165.643 41.6211 165.696 41.5411C165.748 41.4572 165.823 41.4058 165.92 41.3869C166.017 41.368 166.106 41.3878 166.186 41.446C166.269 41.5036 166.321 41.5817 166.34 41.6805ZM165.894 40.4448C165.893 40.4574 165.895 40.4795 165.901 40.5111C165.907 40.5427 165.937 40.6026 165.991 40.6906C165.91 40.7348 165.839 40.763 165.777 40.7751C165.614 40.8068 165.514 40.7278 165.477 40.5381C165.43 40.2932 165.499 40.0295 165.686 39.7472L165.925 39.3872C166.112 39.1049 166.18 38.8334 166.129 38.5726C166.05 38.1657 165.854 37.9927 165.539 38.0539C165.36 38.0886 165.228 38.1963 165.142 38.3769C165.079 38.5081 165.066 38.6685 165.103 38.8582C165.115 38.9214 165.134 38.9874 165.159 39.0563C165.094 39.0935 165.03 39.1182 164.968 39.1303C164.906 39.1424 164.847 39.1395 164.791 39.1216C164.686 39.0805 164.621 38.9927 164.595 38.8584C164.549 38.6253 164.616 38.4176 164.794 38.2354C164.972 38.0532 165.211 37.933 165.51 37.8749C166.19 37.7429 166.585 37.9594 166.695 38.5244C166.729 38.7022 166.703 38.8916 166.617 39.0928C166.535 39.2933 166.436 39.4663 166.319 39.612C166.005 40.0052 165.863 40.2828 165.894 40.4448Z" fill="#D6DCE8"/>
</g>
<path d="M97.6551 46.9377L108.513 60.4017C112.816 65.7365 112.403 69.5914 107.068 73.8937L100.666 79.0565C95.3313 83.3588 91.4764 82.9459 87.1741 77.6111L75.4554 63.0801C71.1531 57.7453 71.5661 53.8904 76.9009 49.5881L82.2357 45.2857" fill="white"/>
<path d="M97.6551 46.9377L108.513 60.4017C112.816 65.7365 112.403 69.5914 107.068 73.8937L100.666 79.0565C95.3313 83.3588 91.4764 82.9459 87.1741 77.6111L75.4554 63.0801C71.1531 57.7453 71.5661 53.8904 76.9009 49.5881L82.2357 45.2857" stroke="#D6DCE8" stroke-width="1.5" stroke-linecap="round" stroke-linejoin="round"/>
<path d="M97.6543 46.9371L93.3864 50.379C90.1855 52.9604 88.2581 52.7539 85.6767 49.553L82.2349 45.2852L97.6543 46.9371Z" fill="white" stroke="#D6DCE8" stroke-width="1.5" stroke-linecap="round" stroke-linejoin="round"/>
<path d="M99.6066 69.9534C99.8152 70.2121 99.9077 70.5111 99.884 70.8503C99.8516 71.1788 99.6976 71.4542 99.4221 71.6764C99.1572 71.89 98.8608 71.9779 98.5329 71.9399C98.205 71.902 97.9324 71.7483 97.7151 71.4789C97.4891 71.1987 97.3923 70.8943 97.4247 70.5658C97.4484 70.2265 97.5927 69.9501 97.8576 69.7364C98.1226 69.5228 98.4233 69.4403 98.7599 69.489C99.1071 69.5292 99.3893 69.684 99.6066 69.9534ZM96.2632 66.9136C96.2786 66.9545 96.3211 67.018 96.3907 67.1042C96.4602 67.1904 96.647 67.3244 96.9509 67.5062C96.7786 67.7696 96.6077 67.9697 96.4382 68.1064C95.9931 68.4654 95.562 68.3862 95.1448 67.8689C94.6059 67.2007 94.3936 66.2869 94.5079 65.1275L94.6537 63.6492C94.768 62.4898 94.5383 61.5545 93.9647 60.8432C93.0695 59.7331 92.1927 59.5242 91.3343 60.2164C90.8469 60.6095 90.618 61.1498 90.6478 61.8373C90.6667 62.3378 90.8848 62.8468 91.302 63.3641C91.441 63.5365 91.6047 63.7069 91.7929 63.8753C91.6543 64.0938 91.5003 64.2714 91.3307 64.4081C91.1612 64.5448 90.9771 64.631 90.7785 64.6667C90.3938 64.7101 90.0537 64.5486 89.7582 64.1822C89.2454 63.5463 89.1133 62.808 89.3621 61.967C89.6108 61.1261 90.1432 60.3766 90.9591 59.7186C92.8135 58.2231 94.3622 58.2459 95.6051 59.7871C95.9962 60.272 96.2231 60.8895 96.2857 61.6394C96.3589 62.3807 96.3352 63.0669 96.2144 63.6979C95.8906 65.3998 95.9068 66.4717 96.2632 66.9136Z" fill="#D6DCE8"/>
<g opacity="0.7">
<path d="M146.872 37.8373L141.672 48.6162C139.611 52.8871 137.079 53.7712 132.808 51.7107L127.683 49.238C123.412 47.1774 122.528 44.6449 124.588 40.374L130.201 28.7409C132.261 24.4701 134.794 23.5859 139.065 25.6465L143.336 27.707" fill="white"/>
<path d="M146.872 37.8373L141.672 48.6162C139.611 52.8871 137.079 53.7712 132.808 51.7107L127.683 49.238C123.412 47.1774 122.528 44.6449 124.588 40.374L130.201 28.7409C132.261 24.4701 134.794 23.5859 139.065 25.6465L143.336 27.707" stroke="#D6DCE8" stroke-width="1.5" stroke-linecap="round" stroke-linejoin="round"/>
<path d="M146.873 37.8354L143.457 36.1869C140.894 34.9506 140.452 33.6843 141.688 31.1218L143.337 27.7051L146.873 37.8354Z" fill="white" stroke="#D6DCE8" stroke-width="1.5" stroke-linecap="round" stroke-linejoin="round"/>
<path d="M133.062 45.8738C132.963 46.0808 132.803 46.2272 132.584 46.313C132.369 46.3901 132.151 46.3754 131.931 46.269C131.718 46.1667 131.576 46.0074 131.502 45.7911C131.429 45.5749 131.444 45.3589 131.548 45.1432C131.656 44.9189 131.818 44.7681 132.033 44.691C132.252 44.6053 132.468 44.6136 132.68 44.7159C132.892 44.8183 133.033 44.9819 133.102 45.2068C133.18 45.4357 133.167 45.6581 133.062 45.8738ZM133.972 42.8825C133.951 42.9043 133.924 42.9497 133.891 43.0187C133.858 43.0877 133.829 43.2442 133.806 43.4881C133.59 43.4585 133.414 43.4109 133.278 43.3454C132.922 43.1735 132.844 42.8805 133.044 42.4663C133.302 41.9314 133.81 41.5279 134.569 41.2558L135.536 40.9088C136.295 40.6367 136.812 40.216 137.087 39.6465C137.515 38.7578 137.386 38.1477 136.699 37.8162C136.309 37.6279 135.903 37.6449 135.482 37.8673C135.175 38.0274 134.921 38.3146 134.721 38.7287C134.655 38.8668 134.597 39.0196 134.547 39.1872C134.37 39.1653 134.213 39.1216 134.077 39.0561C133.941 38.9906 133.833 38.9011 133.752 38.7875C133.611 38.5598 133.611 38.2993 133.752 38.006C133.998 37.4969 134.42 37.1955 135.02 37.1019C135.619 37.0082 136.246 37.1189 136.899 37.4341C138.384 38.1503 138.828 39.1254 138.233 40.3592C138.046 40.7474 137.727 41.0723 137.277 41.3336C136.835 41.5991 136.399 41.7876 135.968 41.8991C134.808 42.2009 134.143 42.5287 133.972 42.8825Z" fill="#D6DCE8"/>
</g>
<path d="M182.33 121.137H165.113V171.561C165.113 177.577 169.996 182.46 176.013 182.46C177.147 182.46 178.234 182.286 179.252 181.974C179.935 181.766 180.595 181.488 181.208 181.153C181.821 180.817 182.411 180.424 182.943 179.984C183.753 179.313 184.459 178.538 185.049 177.67C185.443 177.091 185.778 176.467 186.056 175.819C186.333 175.171 186.542 174.488 186.692 173.771C186.843 173.065 186.912 172.324 186.912 171.572V151.579V142.669V125.707C186.9 123.185 184.852 121.137 182.33 121.137Z" fill="#F1F3F9" stroke="#CFD5E1" stroke-width="3" stroke-miterlimit="10"/>
<path d="M165.102 171.559V114.644C165.102 112.11 163.054 110.062 160.52 110.062H156.054H127.868C126.179 110.062 124.571 109.333 123.448 108.06L110.316 93.1344C109.448 92.1509 108.198 91.584 106.879 91.584H68.0952C65.5729 91.584 63.5249 93.6319 63.5249 96.1543V111.578V131.571V151.565V171.559C63.5249 173.063 63.8257 174.498 64.3811 175.805C64.9365 177.113 65.7349 178.281 66.7183 179.265C67.7018 180.248 68.882 181.047 70.1779 181.602C71.4854 182.157 72.9201 182.458 74.4243 182.458H99.8214H125.207H150.604H176.001C169.984 182.458 165.102 177.575 165.102 171.559Z" fill="white" stroke="#CFD5E1" stroke-width="3" stroke-miterlimit="10"/>
<path d="M105.058 152.428C107.552 149.682 114.608 144.696 121.429 152.428" stroke="#AAB2C5" stroke-width="2" stroke-linecap="round"/>
<circle cx="96.8724" cy="136.056" r="3.63798" fill="#AAB2C5"/>
<circle cx="128.705" cy="136.056" r="3.63798" fill="#AAB2C5"/>
<path d="M41.7392 201.582C41.7277 202.032 41.5611 202.422 41.2394 202.751C40.9181 203.062 40.5179 203.211 40.0389 203.199C39.5783 203.187 39.1954 203.018 38.8903 202.691C38.5852 202.365 38.4386 201.967 38.4505 201.499C38.4628 201.012 38.6297 200.613 38.951 200.302C39.2727 199.973 39.6639 199.814 40.1245 199.826C40.5851 199.838 40.9678 200.016 41.2724 200.361C41.5955 200.707 41.7511 201.114 41.7392 201.582ZM40.953 195.516C40.9331 195.571 40.9213 195.674 40.9175 195.824C40.9137 195.974 40.989 196.276 41.1434 196.73C40.7347 196.851 40.383 196.907 40.0882 196.9C39.3144 196.88 38.9389 196.421 38.9617 195.521C38.9912 194.36 39.573 193.231 40.707 192.134L42.1528 190.737C43.2868 189.64 43.8695 188.474 43.9009 187.237C43.9499 185.307 43.2282 184.323 41.7359 184.285C40.8884 184.264 40.1788 184.621 39.607 185.356C39.1879 185.889 38.9669 186.606 38.9441 187.505C38.9364 187.805 38.956 188.124 39.0027 188.463C38.6682 188.567 38.3536 188.615 38.0588 188.608C37.764 188.6 37.4985 188.528 37.2623 188.391C36.8273 188.098 36.6179 187.634 36.634 186.996C36.6621 185.891 37.173 185.013 38.1666 184.363C39.1602 183.714 40.3663 183.407 41.7849 183.443C45.0091 183.525 46.5872 184.905 46.5192 187.585C46.4978 188.428 46.1908 189.264 45.5982 190.093C45.0241 190.922 44.3983 191.609 43.7207 192.155C41.8951 193.627 40.9725 194.747 40.953 195.516Z" fill="#D1D1D1"/>
<path d="M213.214 17.8362C213.203 18.2752 213.041 18.6556 212.726 18.9771C212.413 19.2804 212.022 19.426 211.554 19.4142C211.105 19.4028 210.731 19.2377 210.433 18.9189C210.135 18.6001 209.992 18.212 210.003 17.7546C210.016 17.279 210.178 16.8895 210.492 16.5862C210.806 16.2647 211.188 16.1096 211.638 16.1211C212.088 16.1325 212.461 16.3067 212.759 16.6438C213.074 16.9813 213.226 17.3788 213.214 17.8362ZM212.447 11.9127C212.427 11.9671 212.416 12.0675 212.412 12.2139C212.408 12.3602 212.482 12.655 212.633 13.0982C212.234 13.2162 211.89 13.2716 211.603 13.2643C210.847 13.2451 210.48 12.7964 210.503 11.9183C210.531 10.784 211.099 9.68166 212.207 8.61136L213.618 7.24673C214.725 6.17642 215.294 5.03753 215.325 3.83006C215.373 1.94566 214.668 0.984966 213.211 0.94797C212.384 0.92696 211.691 1.27551 211.133 1.99361C210.723 2.51412 210.508 3.21345 210.485 4.09162C210.478 4.38434 210.497 4.69604 210.543 5.02672C210.216 5.12827 209.909 5.1754 209.621 5.16809C209.333 5.16078 209.074 5.09012 208.843 4.95612C208.419 4.67073 208.214 4.21702 208.23 3.59499C208.257 2.51558 208.756 1.65866 209.726 1.02425C210.696 0.389831 211.874 0.090207 213.259 0.125376C216.407 0.205306 217.948 1.55337 217.881 4.16957C217.861 4.99285 217.561 5.80905 216.982 6.61817C216.422 7.42775 215.811 8.09874 215.149 8.63115C213.367 10.0688 212.466 11.1626 212.447 11.9127Z" fill="#D1D1D1"/>
<path d="M171.224 173.269C171.224 175.603 170.771 177.914 169.891 180.071C169.011 182.227 167.721 184.186 166.096 185.837C164.47 187.487 162.54 188.796 160.416 189.689C158.292 190.582 156.015 191.042 153.716 191.042C151.417 191.042 149.14 190.582 147.016 189.689C144.892 188.796 142.962 187.487 141.336 185.837C139.71 184.186 138.421 182.227 137.541 180.071C136.661 177.914 136.208 175.603 136.208 173.269C136.208 168.555 138.053 164.035 141.336 160.702C144.619 157.369 149.072 155.496 153.716 155.496C158.359 155.496 162.812 157.369 166.096 160.702C169.379 164.035 171.224 168.555 171.224 173.269Z" fill="white"/>
<path d="M181.228 201.198L166.221 185.964M171.224 173.269C171.224 175.603 170.771 177.914 169.891 180.071C169.011 182.227 167.721 184.186 166.096 185.837C164.47 187.487 162.54 188.796 160.416 189.689C158.292 190.582 156.015 191.042 153.716 191.042C151.417 191.042 149.14 190.582 147.016 189.689C144.892 188.796 142.962 187.487 141.336 185.837C139.71 184.186 138.421 182.227 137.541 180.071C136.661 177.914 136.208 175.603 136.208 173.269C136.208 168.555 138.053 164.035 141.336 160.702C144.619 157.369 149.072 155.496 153.716 155.496C158.359 155.496 162.812 157.369 166.096 160.702C169.379 164.035 171.224 168.555 171.224 173.269Z" stroke="#B8BEC9" stroke-width="3" stroke-linecap="round" stroke-linejoin="round"/>
<path d="M154.42 180.943C154.41 181.332 154.266 181.668 153.988 181.953C153.71 182.221 153.365 182.35 152.951 182.34C152.553 182.329 152.222 182.183 151.958 181.901C151.695 181.619 151.568 181.276 151.578 180.871C151.589 180.45 151.733 180.105 152.011 179.837C152.289 179.553 152.627 179.415 153.025 179.425C153.423 179.436 153.753 179.59 154.016 179.888C154.296 180.187 154.43 180.538 154.42 180.943ZM153.741 176.606C153.723 176.654 153.713 176.743 153.71 176.872C153.707 177.002 153.772 177.263 153.905 177.655C153.552 177.759 153.248 177.808 152.993 177.802C152.325 177.785 152 177.388 152.02 176.611C152.046 175.607 152.548 174.632 153.528 173.685L154.777 172.477C155.757 171.53 156.26 170.522 156.287 169.454C156.33 167.786 155.706 166.936 154.417 166.903C153.685 166.885 153.072 167.193 152.578 167.829C152.216 168.289 152.025 168.908 152.005 169.685C151.998 169.944 152.015 170.22 152.056 170.513C151.767 170.602 151.495 170.644 151.24 170.638C150.985 170.631 150.756 170.569 150.552 170.45C150.176 170.198 149.995 169.796 150.009 169.246C150.033 168.29 150.475 167.532 151.333 166.971C152.192 166.409 153.234 166.144 154.459 166.175C157.245 166.246 158.608 167.439 158.55 169.754C158.531 170.483 158.266 171.205 157.754 171.921C157.258 172.637 156.717 173.231 156.132 173.702C154.554 174.974 153.757 175.942 153.741 176.606Z" fill="#B8BEC9"/>
</svg>
