<svg width="32" height="32" viewBox="0 0 32 32" fill="none" xmlns="http://www.w3.org/2000/svg">
<path d="M12.875 12.4583V18.4687C12.875 19.3995 13.135 20.3117 13.6259 21.1026C14.1167 21.8934 14.8187 22.5313 15.6528 22.9444" stroke="#9EA4B5" stroke-width="1.25" stroke-linecap="round" stroke-linejoin="round"/>
<path d="M22.597 10.7813C22.597 10.6647 22.5676 10.5499 22.5115 10.4476C22.4555 10.3453 22.3745 10.2588 22.2762 10.196C22.1779 10.1332 22.0653 10.0962 21.9489 10.0885C21.8325 10.0807 21.716 10.1023 21.6102 10.1515C18.947 11.3869 16.3164 12.5035 10.7914 12.5285H10.097C9.54447 12.5285 9.01457 12.748 8.62387 13.1387C8.23317 13.5294 8.01367 14.0593 8.01367 14.6119V16.0008C8.01367 16.5533 8.23317 17.0832 8.62387 17.4739C9.01457 17.8646 9.54447 18.0841 10.097 18.0841H10.7914C16.3164 18.1091 18.947 19.2258 21.6102 20.4612C21.716 20.5103 21.8325 20.532 21.9489 20.5242C22.0653 20.5164 22.1779 20.4794 22.2762 20.4166C22.3745 20.3539 22.4555 20.2674 22.5115 20.1651C22.5676 20.0628 22.597 19.948 22.597 19.8313V10.7813Z" stroke="#9EA4B5" stroke-width="1.25" stroke-linecap="round" stroke-linejoin="round"/>
<path d="M22.5967 13.9167H22.9439C23.2202 13.9167 23.4851 14.0264 23.6805 14.2218C23.8758 14.4171 23.9856 14.6821 23.9856 14.9584V15.6528C23.9856 15.9291 23.8758 16.194 23.6805 16.3894C23.4851 16.5847 23.2202 16.6945 22.9439 16.6945H22.5967" stroke="#9EA4B5" stroke-width="1.25" stroke-linecap="round" stroke-linejoin="round"/>
</svg>
