<svg width="32" height="32" viewBox="0 0 32 32" fill="none" xmlns="http://www.w3.org/2000/svg">
<path fill-rule="evenodd" clip-rule="evenodd" d="M9.2501 19.0392L10.4151 19.2175C11.2751 19.3492 11.8893 20.1192 11.8259 20.9867L11.7401 22.1625C11.7151 22.505 11.9018 22.8275 12.2109 22.9767L13.0726 23.3917C13.3818 23.5408 13.7509 23.485 14.0034 23.2525L14.8693 22.4525C15.5076 21.8625 16.4926 21.8625 17.1318 22.4525L17.9976 23.2525C18.2501 23.4858 18.6184 23.5408 18.9284 23.3917L19.7918 22.9758C20.1001 22.8275 20.2859 22.5058 20.2609 22.1642L20.1751 20.9867C20.1118 20.1192 20.7259 19.3492 21.5859 19.2175L22.7509 19.0392C23.0901 18.9875 23.3634 18.7333 23.4401 18.3983L23.6526 17.4667C23.7293 17.1317 23.5934 16.7842 23.3101 16.5908L22.3376 15.925C21.6201 15.4333 21.4009 14.4733 21.8343 13.7192L22.4218 12.6975C22.5926 12.4 22.5643 12.0275 22.3501 11.7592L21.7543 11.0117C21.5401 10.7433 21.1834 10.6325 20.8551 10.7333L19.7284 11.0783C18.8959 11.3333 18.0084 10.9058 17.6884 10.0967L17.2568 9.0025C17.1301 8.6825 16.8209 8.4725 16.4768 8.47333L15.5218 8.47583C15.1776 8.47666 14.8693 8.68833 14.7443 9.00916L14.3234 10.0908C14.0068 10.905 13.1151 11.3358 12.2801 11.0792L11.1068 10.7192C10.7776 10.6175 10.4193 10.7292 10.2051 10.9992L9.61344 11.7475C9.39927 12.0183 9.37344 12.3917 9.5476 12.6892L10.1484 13.7133C10.5909 14.4683 10.3743 15.4375 9.6526 15.9317L8.69177 16.59C8.40844 16.7842 8.2726 17.1317 8.34927 17.4658L8.56177 18.3975C8.6376 18.7333 8.91094 18.9875 9.2501 19.0392V19.0392Z" stroke="#9EA4B5" stroke-width="1.25" stroke-linecap="round" stroke-linejoin="round"/>
<path d="M17.5968 14.4033C18.4784 15.285 18.4784 16.715 17.5968 17.5966C16.7151 18.4783 15.2851 18.4783 14.4034 17.5966C13.5218 16.715 13.5218 15.285 14.4034 14.4033C15.2851 13.5216 16.7151 13.5216 17.5968 14.4033" stroke="#9EA4B5" stroke-width="1.25" stroke-linecap="round" stroke-linejoin="round"/>
</svg>
