<svg width="17" height="17" viewBox="0 0 17 17" fill="none" xmlns="http://www.w3.org/2000/svg">
<path d="M14.1666 1.41602V2.83268L2.83329 5.66602V4.24935H1.41663V12.7493H2.83329V11.3327L4.24996 11.6868V13.1035C4.24996 14.4493 5.38329 15.5827 6.72913 15.5827C8.07496 15.5827 9.20829 14.4493 9.20829 13.1035V12.9618L14.1666 14.166V15.5827H15.5833V1.41602H14.1666ZM7.79163 13.1035C7.79163 13.6702 7.29579 14.166 6.72913 14.166C6.16246 14.166 5.66663 13.6702 5.66663 13.1035V12.041L7.79163 12.6077V13.1035ZM14.1666 12.7493L2.83329 9.91601V7.08268L14.1666 4.24935V12.7493Z" fill="white"/>
</svg>
