<svg width="16" height="16" viewBox="0 0 16 16" fill="none" xmlns="http://www.w3.org/2000/svg">
<path fill-rule="evenodd" clip-rule="evenodd" d="M9.33335 9.33301H10.6667C11.0347 9.33301 11.3334 9.63167 11.3334 9.99967V12.6663C11.3334 13.0343 11.0347 13.333 10.6667 13.333H9.33335C8.96535 13.333 8.66669 13.0343 8.66669 12.6663V9.99967C8.66669 9.63167 8.96535 9.33301 9.33335 9.33301Z" stroke="#9EA4B5" stroke-linecap="round" stroke-linejoin="round"/>
<path d="M14 11.3333H11.3333" stroke="#9EA4B5" stroke-linecap="round" stroke-linejoin="round"/>
<path d="M8.66667 11.3324H2" stroke="#9EA4B5" stroke-linecap="round" stroke-linejoin="round"/>
<path fill-rule="evenodd" clip-rule="evenodd" d="M6.66669 6.66602H5.33335C4.96535 6.66602 4.66669 6.36735 4.66669 5.99935V3.33268C4.66669 2.96468 4.96535 2.66602 5.33335 2.66602H6.66669C7.03469 2.66602 7.33335 2.96468 7.33335 3.33268V5.99935C7.33335 6.36735 7.03469 6.66602 6.66669 6.66602Z" stroke="#9EA4B5" stroke-linecap="round" stroke-linejoin="round"/>
<path d="M2 4.66634H4.66667" stroke="#9EA4B5" stroke-linecap="round" stroke-linejoin="round"/>
<path d="M7.33331 4.66634H14" stroke="#9EA4B5" stroke-linecap="round" stroke-linejoin="round"/>
</svg>
