<svg width="18" height="18" viewBox="0 0 18 18" fill="none" xmlns="http://www.w3.org/2000/svg">
<path d="M10.9342 15.003H8.33311C5.38637 15.003 2.99756 12.6142 2.99756 9.66749V8.3336C2.99756 5.38686 5.38637 2.99805 8.33311 2.99805H9.667C11.0821 2.99805 12.4392 3.56018 13.4398 4.56079C14.4404 5.56141 15.0026 6.91852 15.0026 8.3336V10.001C15.0026 11.106 14.1068 12.0018 13.0017 12.0018H12.935C11.83 12.0018 10.9342 11.106 10.9342 10.001V8.85048" stroke="#9EA4B5" stroke-linecap="round" stroke-linejoin="round"/>
<path d="M7.18261 6.63662L7.38269 6.43654C7.66391 6.15628 8.04477 5.99895 8.4418 5.99902H9.43355C10.2623 5.99902 10.9342 6.67088 10.9342 7.49965V10.5009C10.9342 11.3297 10.2623 12.0015 9.43355 12.0015H8.30774C7.43787 12.0012 6.73279 11.2961 6.73242 10.4262V10.4262C6.73279 9.55633 7.43787 8.85125 8.30774 8.85088H10.9342" stroke="#9EA4B5" stroke-linecap="round" stroke-linejoin="round"/>
</svg>
