<svg width="100" height="100" viewBox="0 0 100 100" fill="none" xmlns="http://www.w3.org/2000/svg">
<circle cx="50" cy="50" r="50" fill="#EFFFED"/>
<path d="M50 32C52.3206 32 54.5462 32.9219 56.1872 34.5628C57.8281 36.2038 58.75 38.4294 58.75 40.75C58.75 43.0706 57.8281 45.2962 56.1872 46.9372C54.5462 48.5781 52.3206 49.5 50 49.5C47.6794 49.5 45.4538 48.5781 43.8128 46.9372C42.1719 45.2962 41.25 43.0706 41.25 40.75C41.25 38.4294 42.1719 36.2038 43.8128 34.5628C45.4538 32.9219 47.6794 32 50 32V32ZM32.5 38.25C33.9 38.25 35.2 38.625 36.325 39.3C35.95 42.875 37 46.425 39.15 49.2C37.9 51.6 35.4 53.25 32.5 53.25C30.5109 53.25 28.6032 52.4598 27.1967 51.0533C25.7902 49.6468 25 47.7391 25 45.75C25 43.7609 25.7902 41.8532 27.1967 40.4467C28.6032 39.0402 30.5109 38.25 32.5 38.25V38.25ZM67.5 38.25C69.4891 38.25 71.3968 39.0402 72.8033 40.4467C74.2098 41.8532 75 43.7609 75 45.75C75 47.7391 74.2098 49.6468 72.8033 51.0533C71.3968 52.4598 69.4891 53.25 67.5 53.25C64.6 53.25 62.1 51.6 60.85 49.2C63 46.425 64.05 42.875 63.675 39.3C64.8 38.625 66.1 38.25 67.5 38.25ZM33.75 63.875C33.75 58.7 41.025 54.5 50 54.5C58.975 54.5 66.25 58.7 66.25 63.875V68.25H33.75V63.875ZM20 68.25V64.5C20 61.025 24.725 58.1 31.125 57.25C29.65 58.95 28.75 61.3 28.75 63.875V68.25H20ZM80 68.25H71.25V63.875C71.25 61.3 70.35 58.95 68.875 57.25C75.275 58.1 80 61.025 80 64.5V68.25Z" fill="#00A82D"/>
</svg>
