<svg width="30" height="30" viewBox="0 0 30 30" fill="none" xmlns="http://www.w3.org/2000/svg">
<circle cx="15" cy="15" r="15" fill="#9EA4B5"/>
<path d="M7.30273 14.0957H8.14648C8.47461 14.0957 8.74609 14.0391 8.96094 13.9258C9.17969 13.8125 9.3418 13.6562 9.44727 13.457C9.55273 13.2578 9.60547 13.0293 9.60547 12.7715C9.60547 12.502 9.55664 12.2715 9.45898 12.0801C9.36523 11.8848 9.2207 11.7344 9.02539 11.6289C8.83398 11.5234 8.58984 11.4707 8.29297 11.4707C8.04297 11.4707 7.81641 11.5215 7.61328 11.623C7.41406 11.7207 7.25586 11.8613 7.13867 12.0449C7.02148 12.2246 6.96289 12.4395 6.96289 12.6895H5.54492C5.54492 12.2363 5.66406 11.834 5.90234 11.4824C6.14062 11.1309 6.46484 10.8555 6.875 10.6562C7.28906 10.4531 7.75391 10.3516 8.26953 10.3516C8.82031 10.3516 9.30078 10.4434 9.71094 10.627C10.125 10.8066 10.4473 11.0762 10.6777 11.4355C10.9082 11.7949 11.0234 12.2402 11.0234 12.7715C11.0234 13.0137 10.9668 13.2598 10.8535 13.5098C10.7402 13.7598 10.5723 13.9883 10.3496 14.1953C10.127 14.3984 9.84961 14.5645 9.51758 14.6934C9.18555 14.8184 8.80078 14.8809 8.36328 14.8809H7.30273V14.0957ZM7.30273 15.1973V14.4238H8.36328C8.86328 14.4238 9.28906 14.4824 9.64062 14.5996C9.99609 14.7168 10.2852 14.8789 10.5078 15.0859C10.7305 15.2891 10.8926 15.5215 10.9941 15.7832C11.0996 16.0449 11.1523 16.3223 11.1523 16.6152C11.1523 17.0137 11.0801 17.3691 10.9355 17.6816C10.7949 17.9902 10.5938 18.252 10.332 18.4668C10.0703 18.6816 9.76367 18.8438 9.41211 18.9531C9.06445 19.0625 8.68555 19.1172 8.27539 19.1172C7.9082 19.1172 7.55664 19.0664 7.2207 18.9648C6.88477 18.8633 6.58398 18.7129 6.31836 18.5137C6.05273 18.3105 5.8418 18.0586 5.68555 17.7578C5.5332 17.4531 5.45703 17.1016 5.45703 16.7031H6.86914C6.86914 16.957 6.92773 17.1816 7.04492 17.377C7.16602 17.5684 7.33398 17.7188 7.54883 17.8281C7.76758 17.9375 8.01758 17.9922 8.29883 17.9922C8.5957 17.9922 8.85156 17.9395 9.06641 17.834C9.28125 17.7285 9.44531 17.5723 9.55859 17.3652C9.67578 17.1582 9.73438 16.9082 9.73438 16.6152C9.73438 16.2832 9.66992 16.0137 9.54102 15.8066C9.41211 15.5996 9.22852 15.4473 8.99023 15.3496C8.75195 15.248 8.4707 15.1973 8.14648 15.1973H7.30273ZM16.7305 10.416H16.9062V11.5703H16.8066C16.3027 11.5703 15.8672 11.6484 15.5 11.8047C15.1367 11.9609 14.8379 12.1758 14.6035 12.4492C14.3691 12.7227 14.1934 13.043 14.0762 13.4102C13.9629 13.7734 13.9062 14.1602 13.9062 14.5703V15.9121C13.9062 16.252 13.9434 16.5527 14.0176 16.8145C14.0918 17.0723 14.1953 17.2891 14.3281 17.4648C14.4648 17.6367 14.6211 17.7676 14.7969 17.8574C14.9727 17.9473 15.1621 17.9922 15.3652 17.9922C15.5762 17.9922 15.7676 17.9492 15.9395 17.8633C16.1113 17.7734 16.2578 17.6504 16.3789 17.4941C16.5 17.3379 16.5918 17.1523 16.6543 16.9375C16.7168 16.7227 16.748 16.4883 16.748 16.2344C16.748 15.9922 16.7168 15.7656 16.6543 15.5547C16.5957 15.3398 16.5078 15.1523 16.3906 14.9922C16.2734 14.8281 16.127 14.7012 15.9512 14.6113C15.7793 14.5176 15.5801 14.4707 15.3535 14.4707C15.0723 14.4707 14.8164 14.5371 14.5859 14.6699C14.3594 14.8027 14.1758 14.9766 14.0352 15.1914C13.8984 15.4023 13.8242 15.627 13.8125 15.8652L13.2734 15.6895C13.3047 15.3262 13.3848 15 13.5137 14.7109C13.6465 14.4219 13.8203 14.1758 14.0352 13.9727C14.25 13.7695 14.498 13.6152 14.7793 13.5098C15.0645 13.4004 15.377 13.3457 15.7168 13.3457C16.1309 13.3457 16.4902 13.4238 16.7949 13.5801C17.0996 13.7363 17.3516 13.9492 17.5508 14.2188C17.7539 14.4844 17.9043 14.7891 18.002 15.1328C18.1035 15.4727 18.1543 15.8281 18.1543 16.1992C18.1543 16.6094 18.0918 16.9922 17.9668 17.3477C17.8418 17.6992 17.6582 18.0078 17.416 18.2734C17.1777 18.5391 16.8867 18.7461 16.543 18.8945C16.2031 19.043 15.8164 19.1172 15.3828 19.1172C14.9258 19.1172 14.5176 19.0293 14.1582 18.8535C13.8027 18.6777 13.5 18.4355 13.25 18.127C13.0039 17.8184 12.8164 17.4629 12.6875 17.0605C12.5586 16.6582 12.4941 16.2324 12.4941 15.7832V15.1973C12.4941 14.5488 12.5762 13.9375 12.7402 13.3633C12.9043 12.7852 13.1562 12.2754 13.4961 11.834C13.8398 11.3926 14.2793 11.0469 14.8145 10.7969C15.3496 10.543 15.9883 10.416 16.7305 10.416ZM24.8457 14.0195V15.4141C24.8457 16.082 24.7793 16.6523 24.6465 17.125C24.5176 17.5938 24.3301 17.9746 24.084 18.2676C23.8379 18.5605 23.543 18.7754 23.1992 18.9121C22.8594 19.0488 22.4785 19.1172 22.0566 19.1172C21.7207 19.1172 21.4082 19.0742 21.1191 18.9883C20.834 18.9023 20.5762 18.7676 20.3457 18.584C20.1152 18.4004 19.918 18.1641 19.7539 17.875C19.5938 17.582 19.4688 17.2324 19.3789 16.8262C19.293 16.4199 19.25 15.9492 19.25 15.4141V14.0195C19.25 13.3477 19.3164 12.7812 19.4492 12.3203C19.582 11.8555 19.7715 11.4785 20.0176 11.1895C20.2637 10.8965 20.5566 10.6836 20.8965 10.5508C21.2402 10.418 21.623 10.3516 22.0449 10.3516C22.3848 10.3516 22.6973 10.3945 22.9824 10.4805C23.2715 10.5625 23.5293 10.6934 23.7559 10.873C23.9863 11.0527 24.1816 11.2871 24.3418 11.5762C24.5059 11.8613 24.6309 12.207 24.7168 12.6133C24.8027 13.0156 24.8457 13.4844 24.8457 14.0195ZM23.4336 15.6133V13.8086C23.4336 13.4688 23.4141 13.1699 23.375 12.9121C23.3359 12.6504 23.2773 12.4297 23.1992 12.25C23.125 12.0664 23.0312 11.918 22.918 11.8047C22.8047 11.6875 22.6758 11.6035 22.5312 11.5527C22.3867 11.498 22.2246 11.4707 22.0449 11.4707C21.8262 11.4707 21.6309 11.5137 21.459 11.5996C21.2871 11.6816 21.1426 11.8145 21.0254 11.998C20.9082 12.1816 20.8184 12.4238 20.7559 12.7246C20.6973 13.0215 20.668 13.3828 20.668 13.8086V15.6133C20.668 15.957 20.6875 16.2598 20.7266 16.5215C20.7656 16.7832 20.8242 17.0078 20.9023 17.1953C20.9805 17.3789 21.0742 17.5312 21.1836 17.6523C21.2969 17.7695 21.4258 17.8555 21.5703 17.9102C21.7188 17.9648 21.8809 17.9922 22.0566 17.9922C22.2793 17.9922 22.4766 17.9492 22.6484 17.8633C22.8203 17.7773 22.9648 17.6406 23.082 17.4531C23.1992 17.2617 23.2871 17.0137 23.3457 16.709C23.4043 16.4043 23.4336 16.0391 23.4336 15.6133Z" fill="white"/>
</svg>
