<svg width="50" height="50" viewBox="0 0 50 50" fill="none" xmlns="http://www.w3.org/2000/svg">
<circle cx="25" cy="25" r="25" fill="#EFFFED"/>
<path d="M19.875 18.875H17.625C17.0283 18.875 16.456 19.1121 16.034 19.534C15.6121 19.956 15.375 20.5283 15.375 21.125V30.125H17.625V25.625H19.875V30.125H22.125V21.125C22.125 20.5283 21.8879 19.956 21.466 19.534C21.044 19.1121 20.4717 18.875 19.875 18.875ZM19.875 23.375H17.625V21.125H19.875V23.375ZM27.75 18.875H23.25V30.125H25.5V25.625H27.75C28.3467 25.625 28.919 25.3879 29.341 24.966C29.7629 24.544 30 23.9717 30 23.375V21.125C30 20.5283 29.7629 19.956 29.341 19.534C28.919 19.1121 28.3467 18.875 27.75 18.875ZM27.75 23.375H25.5V21.125H27.75V23.375ZM34.5 21.125V27.875H35.625V30.125H31.125V27.875H32.25V21.125H31.125V18.875H35.625V21.125H34.5Z" fill="#00A82D"/>
</svg>
