<svg width="50" height="50" viewBox="0 0 50 50" fill="none" xmlns="http://www.w3.org/2000/svg">
<circle cx="25" cy="25" r="25" fill="#EFFFED"/>
<path d="M25.5 15.375C19.3125 15.375 14.25 19.4025 14.25 24.375C14.3063 26.7937 15.4425 29.0662 17.3438 30.5625C17.3438 31.2375 16.8713 33.0037 14.25 35.625C16.9163 35.5012 19.47 34.5 21.5288 32.8125C22.8113 33.1838 24.1613 33.375 25.5 33.375C31.6875 33.375 36.75 29.3475 36.75 24.375C36.75 19.4025 31.6875 15.375 25.5 15.375ZM25.5 31.125C20.5275 31.125 16.5 28.0988 16.5 24.375C16.5 20.6512 20.5275 17.625 25.5 17.625C30.4725 17.625 34.5 20.6512 34.5 24.375C34.5 28.0988 30.4725 31.125 25.5 31.125Z" fill="#00A82D"/>
</svg>
