<svg width="100" height="26" viewBox="0 0 100 26" fill="none" xmlns="http://www.w3.org/2000/svg">
<line x1="3" y1="5" x2="3" y2="21" stroke="#B8BDCC" stroke-width="2" stroke-linecap="round"/>
<line x1="9" y1="1" x2="9" y2="25" stroke="#B8BDCC" stroke-width="2" stroke-linecap="round"/>
<line x1="15" y1="5" x2="15" y2="21" stroke="#B8BDCC" stroke-width="2" stroke-linecap="round"/>
<line x1="21" y1="1" x2="21" y2="25" stroke="#B8BDCC" stroke-width="2" stroke-linecap="round"/>
<line x1="27" y1="7" x2="27" y2="19" stroke="#B8BDCC" stroke-width="2" stroke-linecap="round"/>
<line x1="33" y1="7" x2="33" y2="19" stroke="#B8BDCC" stroke-width="2" stroke-linecap="round"/>
<line x1="39" y1="2.5" x2="39" y2="23.5" stroke="#B8BDCC" stroke-width="2" stroke-linecap="round"/>
<line x1="45" y1="2.5" x2="45" y2="23.5" stroke="#B8BDCC" stroke-width="2" stroke-linecap="round"/>
<line x1="51" y1="7" x2="51" y2="19" stroke="#B8BDCC" stroke-width="2" stroke-linecap="round"/>
<line x1="57" y1="7" x2="57" y2="19" stroke="#B8BDCC" stroke-width="2" stroke-linecap="round"/>
<line x1="63" y1="1" x2="63" y2="25" stroke="#B8BDCC" stroke-width="2" stroke-linecap="round"/>
<line x1="69" y1="5" x2="69" y2="21" stroke="#B8BDCC" stroke-width="2" stroke-linecap="round"/>
<line x1="75" y1="2.5" x2="75" y2="23.5" stroke="#B8BDCC" stroke-width="2" stroke-linecap="round"/>
<line x1="81" y1="7" x2="81" y2="19" stroke="#B8BDCC" stroke-width="2" stroke-linecap="round"/>
<line x1="87" y1="7" x2="87" y2="19" stroke="#B8BDCC" stroke-width="2" stroke-linecap="round"/>
<line x1="93" y1="5" x2="93" y2="21" stroke="#B8BDCC" stroke-width="2" stroke-linecap="round"/>
<line x1="99" y1="7" x2="99" y2="19" stroke="#B8BDCC" stroke-width="2" stroke-linecap="round"/>
<circle cx="3" cy="13" r="3" fill="#00A82D"/>
</svg>
