<svg width="50" height="50" viewBox="0 0 50 50" fill="none" xmlns="http://www.w3.org/2000/svg">
<circle cx="25" cy="25" r="24.5" fill="#EFFFED" stroke="#B8BDCC"/>
<path d="M19.1717 23.6892C20.7317 26.755 23.245 29.2683 26.3108 30.8283L28.6942 28.445C28.9975 28.1417 29.42 28.055 29.7992 28.1742C31.0125 28.575 32.3125 28.7917 33.6667 28.7917C33.954 28.7917 34.2295 28.9058 34.4327 29.109C34.6359 29.3121 34.75 29.5877 34.75 29.875V33.6667C34.75 33.954 34.6359 34.2295 34.4327 34.4327C34.2295 34.6359 33.954 34.75 33.6667 34.75C28.7823 34.75 24.0979 32.8097 20.6441 29.3559C17.1903 25.9021 15.25 21.2177 15.25 16.3333C15.25 16.046 15.3641 15.7705 15.5673 15.5673C15.7705 15.3641 16.046 15.25 16.3333 15.25H20.125C20.4123 15.25 20.6879 15.3641 20.891 15.5673C21.0942 15.7705 21.2083 16.046 21.2083 16.3333C21.2083 17.6875 21.425 18.9875 21.8258 20.2008C21.945 20.58 21.8583 21.0025 21.555 21.3058L19.1717 23.6892Z" fill="#00A82D"/>
</svg>
