<svg width="50" height="50" viewBox="0 0 50 50" fill="none" xmlns="http://www.w3.org/2000/svg">
<circle cx="25" cy="25" r="24.5" fill="#EFFFED" stroke="#9EA4B5"/>
<path fill-rule="evenodd" clip-rule="evenodd" d="M16.2259 28.9514L17.7404 29.1832C18.8584 29.3544 19.6568 30.3554 19.5745 31.4832L19.4629 33.0117C19.4304 33.457 19.6731 33.8762 20.075 34.0702L21.1952 34.6097C21.5971 34.8036 22.077 34.731 22.4052 34.4287L23.5308 33.3887C24.3607 32.6217 25.6412 32.6217 26.4721 33.3887L27.5977 34.4287C27.9259 34.7321 28.4047 34.8036 28.8077 34.6097L29.9301 34.0691C30.3309 33.8762 30.5725 33.4581 30.54 33.0139L30.4284 31.4832C30.3461 30.3554 31.1445 29.3544 32.2625 29.1832L33.777 28.9514C34.2179 28.8842 34.5732 28.5538 34.6729 28.1183L34.9492 26.9072C35.0488 26.4717 34.8722 26.0199 34.5039 25.7686L33.2397 24.903C32.3069 24.2638 32.022 23.0158 32.5853 22.0354L33.3491 20.7072C33.5712 20.3205 33.5343 19.8362 33.2559 19.4874L32.4813 18.5157C32.2029 18.1668 31.7392 18.0227 31.3124 18.1538L29.8477 18.6023C28.7655 18.9338 27.6117 18.3781 27.1957 17.3262L26.6346 15.9037C26.4699 15.4877 26.068 15.2147 25.6206 15.2158L24.3791 15.2191C23.9317 15.2202 23.5308 15.4953 23.3683 15.9124L22.8212 17.3186C22.4096 18.377 21.2504 18.9371 20.1649 18.6034L18.6396 18.1354C18.2117 18.0032 17.7458 18.1484 17.4674 18.4994L16.6982 19.4722C16.4198 19.8243 16.3862 20.3097 16.6127 20.6964L17.3937 22.0278C17.969 23.0093 17.6873 24.2692 16.7492 24.9117L15.5001 25.7675C15.1317 26.0199 14.9552 26.4717 15.0548 26.9061L15.3311 28.1172C15.4297 28.5538 15.785 28.8842 16.2259 28.9514V28.9514Z" fill="#00A82D" stroke="#00A82D" stroke-linecap="round" stroke-linejoin="round"/>
<path fill-rule="evenodd" clip-rule="evenodd" d="M27.0774 22.9241C28.2235 24.0702 28.2235 25.9292 27.0774 27.0754C25.9312 28.2216 24.0722 28.2216 22.926 27.0754C21.7799 25.9292 21.7799 24.0702 22.926 22.9241C24.0722 21.7779 25.9312 21.7779 27.0774 22.9241" fill="#00A82D"/>
<path d="M27.0774 22.9241C28.2235 24.0702 28.2235 25.9292 27.0774 27.0754C25.9312 28.2216 24.0722 28.2216 22.926 27.0754C21.7799 25.9292 21.7799 24.0702 22.926 22.9241C24.0722 21.7779 25.9312 21.7779 27.0774 22.9241" stroke="#00A82D" stroke-width="1.04167" stroke-linecap="round" stroke-linejoin="round"/>
<path d="M21.8047 23.1758L20.1836 28H19.0469L21.1719 22.3125H21.8984L21.8047 23.1758ZM23.1602 28L21.5312 23.1758L21.4336 22.3125H22.1641L24.3008 28H23.1602ZM23.0859 25.8867V26.7344H20.0352V25.8867H23.0859ZM27.0742 25.9258H25.6094V25.082H27.0742C27.3138 25.082 27.5078 25.043 27.6562 24.9648C27.8073 24.8841 27.918 24.7747 27.9883 24.6367C28.0586 24.4961 28.0938 24.3359 28.0938 24.1562C28.0938 23.9818 28.0586 23.819 27.9883 23.668C27.918 23.5169 27.8073 23.3945 27.6562 23.3008C27.5078 23.207 27.3138 23.1602 27.0742 23.1602H25.9609V28H24.8867V22.3125H27.0742C27.5169 22.3125 27.8945 22.3919 28.207 22.5508C28.5221 22.707 28.7617 22.9245 28.9258 23.2031C29.0924 23.4792 29.1758 23.7943 29.1758 24.1484C29.1758 24.5156 29.0924 24.832 28.9258 25.0977C28.7617 25.3633 28.5221 25.5677 28.207 25.7109C27.8945 25.8542 27.5169 25.9258 27.0742 25.9258ZM31.1641 22.3125V28H30.0898V22.3125H31.1641Z" fill="white"/>
</svg>
