<svg width="50" height="50" viewBox="0 0 50 50" fill="none" xmlns="http://www.w3.org/2000/svg">
<circle cx="25" cy="25" r="24.5" fill="#EFFFED" stroke="#00A82D"/>
<path d="M19 13L21.5 15.5C18.6568 18.1864 17.7397 19.5816 19.5 21.5C21.5275 22.8933 22.8172 22.7492 24.9335 21.0535C24.9715 21.0231 25.0273 21.024 25.0641 21.0559C26.7275 22.499 27.8816 22.8942 30.5 22L33.5 25C36.5 28 34.5 28.5 32 26.5C31 25.5 30 26.3 31 27.5C33.5 30.5 32 32 29.5 29C28.3288 27.5945 27 29 28 30.5C31 33.5 28.9935 35.4199 27 32.5C26.3445 31.5399 26.1473 31.479 25.7486 31.491C25.6586 31.4937 25.6104 31.3839 25.6653 31.3125C26.7968 29.8405 24.4588 28.0412 23.5 29C24.5 26.5 21.5 24 19.5 25.5C18.1311 23.4061 17.3187 22.9757 15 24L12 20.5L19 13Z" fill="#00A82D" stroke="#00A82D"/>
<path d="M14.3321 27.1332L16.3321 25.1332C16.8281 24.6328 18.3281 25.6328 17.8321 26.6332L15.8321 28.6332C14.8283 29.6327 13.3276 28.1327 14.3321 27.1332Z" fill="#00A82D" stroke="#00A82D"/>
<path d="M17.2505 30.3244L19.7942 27.8008C20.425 27.1695 22.3328 28.4313 21.702 29.6935L19.1583 32.217C17.8816 33.4782 15.9729 31.5855 17.2505 30.3244Z" fill="#00A82D" stroke="#00A82D"/>
<path d="M21.2535 32.6149L22.7797 31.1008C23.1581 30.722 24.3028 31.4791 23.9243 32.2364L22.3981 33.7505C21.6321 34.5072 20.4869 33.3716 21.2535 32.6149Z" fill="#00A82D" stroke="#00A82D"/>
<path d="M24.169 35.0766L25.1864 34.0672C25.4388 33.8147 26.2019 34.3194 25.9495 34.8243L24.9321 35.8337C24.4214 36.3382 23.6579 35.5811 24.169 35.0766Z" fill="#00A82D" stroke="#00A82D"/>
<path d="M38 20L31 13L29 15C28.188 15.6684 27.6084 15.7183 26.5 15.5C25.2988 15.286 24.7179 15.3358 23.5 16L20 19.5C20.785 20.6922 21.3792 21.0521 23.5 20C24.5977 19.4976 25.2547 19.3571 26.5 20C28.275 20.3834 29.1426 20.2526 30.5 19.5L35.5 24.5C34.7306 23.1473 34.86 22.813 35.5 22.5L38 20Z" fill="#00A82D" stroke="#00A82D"/>
</svg>
