<svg width="50" height="50" viewBox="0 0 50 50" fill="none" xmlns="http://www.w3.org/2000/svg">
<circle cx="25" cy="25" r="24.5" fill="#EFFFED" stroke="#00A82D"/>
<path d="M24 14V12H25V14H24Z" fill="#00A82D" stroke="#00A82D"/>
<path d="M19.7763 15.2309L19 13.3877L19.9216 12.9995L20.6979 14.8427L19.7763 15.2309Z" fill="#00A82D" stroke="#00A82D"/>
<path d="M16.5501 18.0392L15 16.7754L15.6319 16.0003L17.182 17.2641L16.5501 18.0392Z" fill="#00A82D" stroke="#00A82D"/>
<path d="M29.001 14.8432L29.7773 13L30.6989 13.3882L29.9226 15.2313L29.001 14.8432Z" fill="#00A82D" stroke="#00A82D"/>
<path d="M33.0006 17.2637L34.5508 16L35.1826 16.7751L33.6324 18.0388L33.0006 17.2637Z" fill="#00A82D" stroke="#00A82D"/>
<path d="M29.0095 31.9943H21.0095V34.9943H22.0095C22.0095 37.9943 28.0095 37.9943 28.0095 34.9943H29.0095V31.9943Z" fill="#00A82D"/>
<path d="M20.6291 29.9943H24.0095V27.4943L22.0095 25.9943V23.9943H24.0095V24.9943L25.0095 25.9943L26.0095 24.9943V23.9943H28.0095V25.9943L26.0095 27.4943V29.9943H29.4102C29.4652 29.9943 29.5094 29.95 29.5116 29.8951C29.5241 29.5841 29.5991 29.3769 30.0095 28.9943C41 11 7.5013 12.9994 20.0095 28.9943C20.3978 29.2416 20.5815 29.41 20.5272 29.8758C20.52 29.9377 20.5668 29.9943 20.6291 29.9943Z" fill="#00A82D"/>
<path d="M29.0095 31.9943H21.0095V34.9943H22.0095C22.0095 37.9943 28.0095 37.9943 28.0095 34.9943H29.0095V31.9943Z" stroke="#00A82D"/>
<path d="M20.6291 29.9943H24.0095V27.4943L22.0095 25.9943V23.9943H24.0095V24.9943L25.0095 25.9943L26.0095 24.9943V23.9943H28.0095V25.9943L26.0095 27.4943V29.9943H29.4102C29.4652 29.9943 29.5094 29.95 29.5116 29.8951C29.5241 29.5841 29.5991 29.3769 30.0095 28.9943C41 11 7.5013 12.9994 20.0095 28.9943C20.3978 29.2416 20.5815 29.41 20.5272 29.8758C20.52 29.9377 20.5668 29.9943 20.6291 29.9943Z" stroke="#00A82D"/>
</svg>
