<svg width="50" height="50" viewBox="0 0 50 50" fill="none" xmlns="http://www.w3.org/2000/svg">
<circle cx="25" cy="25" r="24.5" fill="#EFFFED" stroke="#00A82D"/>
<path d="M25 17.958C26.0056 17.958 26.97 18.3575 27.6811 19.0686C28.3922 19.7796 28.7917 20.7441 28.7917 21.7497C28.7917 22.7553 28.3922 23.7197 27.6811 24.4308C26.97 25.1419 26.0056 25.5413 25 25.5413C23.9944 25.5413 23.03 25.1419 22.3189 24.4308C21.6078 23.7197 21.2083 22.7553 21.2083 21.7497C21.2083 20.7441 21.6078 19.7796 22.3189 19.0686C23.03 18.3575 23.9944 17.958 25 17.958ZM17.4167 20.6663C18.0233 20.6663 18.5867 20.8288 19.0742 21.1213C18.9117 22.6705 19.3667 24.2088 20.2983 25.4113C19.7567 26.4513 18.6733 27.1663 17.4167 27.1663C16.5547 27.1663 15.7281 26.8239 15.1186 26.2144C14.5091 25.6049 14.1667 24.7783 14.1667 23.9163C14.1667 23.0544 14.5091 22.2277 15.1186 21.6182C15.7281 21.0088 16.5547 20.6663 17.4167 20.6663ZM32.5833 20.6663C33.4453 20.6663 34.2719 21.0088 34.8814 21.6182C35.4909 22.2277 35.8333 23.0544 35.8333 23.9163C35.8333 24.7783 35.4909 25.6049 34.8814 26.2144C34.2719 26.8239 33.4453 27.1663 32.5833 27.1663C31.3267 27.1663 30.2433 26.4513 29.7017 25.4113C30.6333 24.2088 31.0883 22.6705 30.9258 21.1213C31.4133 20.8288 31.9767 20.6663 32.5833 20.6663ZM17.9583 31.7705C17.9583 29.528 21.1108 27.708 25 27.708C28.8892 27.708 32.0417 29.528 32.0417 31.7705V33.6663H17.9583V31.7705ZM12 33.6663V32.0413C12 30.5355 14.0475 29.268 16.8208 28.8997C16.1817 29.6363 15.7917 30.6547 15.7917 31.7705V33.6663H12ZM38 33.6663H34.2083V31.7705C34.2083 30.6547 33.8183 29.6363 33.1792 28.8997C35.9525 29.268 38 30.5355 38 32.0413V33.6663Z" fill="#00A82D"/>
</svg>
