<svg width="50" height="50" viewBox="0 0 50 50" fill="none" xmlns="http://www.w3.org/2000/svg">
<circle cx="25" cy="25" r="25" fill="#EFFFED"/>
<path d="M25.5 22.8C24.015 22.8 22.8 24.015 22.8 25.5C22.8 26.985 24.015 28.2 25.5 28.2C26.985 28.2 28.2 26.985 28.2 25.5C28.2 24.015 26.985 22.8 25.5 22.8ZM33.6 25.5C33.6 21.045 29.955 17.4 25.5 17.4C21.045 17.4 17.4 21.045 17.4 25.5C17.4 28.47 19.02 31.035 21.45 32.52L22.8 30.225C21.18 29.28 20.1 27.525 20.1 25.635C20.1 22.665 22.53 20.235 25.5 20.235C28.47 20.235 30.9 22.665 30.9 25.635C30.9 27.66 29.82 29.415 28.2 30.225L29.55 32.52C31.98 31.17 33.6 28.47 33.6 25.5ZM25.5 12C18.075 12 12 18.075 12 25.5C12 30.495 14.7 34.815 18.75 37.11L20.1 34.815C16.86 32.925 14.7 29.415 14.7 25.5C14.7 19.56 19.56 14.7 25.5 14.7C31.44 14.7 36.3 19.56 36.3 25.5C36.3 29.55 34.14 32.925 30.9 34.815L32.25 37.11C36.3 34.815 39 30.495 39 25.5C39 18.075 32.925 12 25.5 12Z" fill="#00A82D"/>
</svg>
