<svg width="100" height="100" viewBox="0 0 100 100" fill="none" xmlns="http://www.w3.org/2000/svg">
<circle cx="50" cy="50" r="50" fill="#EFFFED"/>
<path d="M68 68C69.5913 68 71.1174 68.6321 72.2426 69.7574C73.3679 70.8826 74 72.4087 74 74C74 75.5913 73.3679 77.1174 72.2426 78.2426C71.1174 79.3679 69.5913 80 68 80C64.67 80 62 77.3 62 74C62 70.67 64.67 68 68 68ZM20 20H29.81L32.63 26H77C77.7956 26 78.5587 26.3161 79.1213 26.8787C79.6839 27.4413 80 28.2044 80 29C80 29.51 79.85 30.02 79.64 30.5L68.9 49.91C67.88 51.74 65.9 53 63.65 53H41.3L38.6 57.89L38.51 58.25C38.51 58.4489 38.589 58.6397 38.7297 58.7803C38.8703 58.921 39.0611 59 39.26 59H74V65H38C34.67 65 32 62.3 32 59C32 57.95 32.27 56.96 32.72 56.12L36.8 48.77L26 26H20V20ZM38 68C39.5913 68 41.1174 68.6321 42.2426 69.7574C43.3679 70.8826 44 72.4087 44 74C44 75.5913 43.3679 77.1174 42.2426 78.2426C41.1174 79.3679 39.5913 80 38 80C34.67 80 32 77.3 32 74C32 70.67 34.67 68 38 68ZM65 47L73.34 32H35.42L42.5 47H65Z" fill="#00A82D"/>
</svg>
