<svg width="50" height="50" viewBox="0 0 50 50" fill="none" xmlns="http://www.w3.org/2000/svg">
<circle cx="25" cy="25" r="25" fill="#EFFFED"/>
<path d="M31.625 28.875C31.625 30.2625 30.5125 31.375 29.125 31.375C27.7375 31.375 26.625 30.2625 26.625 28.875C26.625 27.4875 27.75 26.375 29.125 26.375C30.5 26.375 31.625 27.5 31.625 28.875ZM20.375 26.375C19 26.375 17.875 27.5 17.875 28.875C17.875 30.25 19 31.375 20.375 31.375C21.75 31.375 22.875 30.2625 22.875 28.875C22.875 27.4875 21.7625 26.375 20.375 26.375ZM38.5 28.25V32C38.5 32.6875 37.9375 33.25 37.25 33.25H36V34.5C36 35.8875 34.8875 37 33.5 37H16C14.625 37 13.5 35.8875 13.5 34.5V33.25H12.25C11.5625 33.25 11 32.6875 11 32V28.25C11 27.5625 11.5625 27 12.25 27H13.5C13.5 22.1625 17.4125 18.25 22.25 18.25H23.5V16.6625C22.75 16.2375 22.25 15.425 22.25 14.5C22.25 13.125 23.375 12 24.75 12C26.125 12 27.25 13.125 27.25 14.5C27.25 15.425 26.75 16.2375 26 16.6625V18.25H27.25C32.0875 18.25 36 22.1625 36 27H37.25C37.9375 27 38.5 27.5625 38.5 28.25ZM36 29.5H33.5V27C33.5 23.55 30.7 20.75 27.25 20.75H22.25C18.8 20.75 16 23.55 16 27V29.5H13.5V30.75H16V34.5H33.5V30.75H36V29.5Z" fill="#00A82D"/>
</svg>
