<svg width="32" height="32" viewBox="0 0 32 32" fill="none" xmlns="http://www.w3.org/2000/svg">
<path d="M17 10V12" stroke="#9EA4B5" stroke-width="1.25"/>
<circle cx="17" cy="10" r="0.625" fill="#9EA4B5" stroke="#9EA4B5" stroke-width="0.75"/>
<circle cx="19.5" cy="18.5" r="0.875" fill="#9EA4B5" stroke="#9EA4B5" stroke-width="1.25"/>
<circle cx="13.5" cy="18.5" r="0.875" fill="#9EA4B5" stroke="#9EA4B5" stroke-width="1.25"/>
<path d="M9 17.6315H9.5C9 10.6317 24 10.5 23.5 17.6315H24C24.5523 17.6315 25 18.0792 25 18.6315V20.1314C25 20.6836 24.5524 21.1312 24.0003 21.1314L23.5 21.1315V22.1315C23.5 22.6838 23.0523 23.1315 22.5 23.1315H10.5C9.94772 23.1315 9.5 22.6838 9.5 22.1315V21.1315H9C8.44772 21.1315 8 20.6838 8 20.1315V18.6315C8 18.0792 8.44772 17.6315 9 17.6315Z" stroke="#9EA4B5" stroke-width="1.25"/>
</svg>
