<svg width="100" height="100" viewBox="0 0 100 100" fill="none" xmlns="http://www.w3.org/2000/svg">
<circle cx="50" cy="50" r="50" fill="#EFFFED"/>
<path d="M52.9465 26.5058L57.9322 31.4915L34.5763 54.8475L45.1525 65.4237L68.5085 42.5085L73.9662 46.9429C74.6132 47.4685 75.5815 47.0184 75.5966 46.1849L75.9808 25.0552C75.9912 24.4819 75.5184 24.0172 74.9453 24.0377L53.6179 24.7994C52.7447 24.8305 52.3286 25.888 52.9465 26.5058Z" fill="#00A82D"/>
<path d="M32.8136 58.3729L24 67.1864M37.661 62.339L24 76M42.0678 67.1864L32.8136 76M57.9322 31.4915L52.9465 26.5058C52.3286 25.888 52.7447 24.8305 53.6179 24.7994L74.9453 24.0377C75.5184 24.0172 75.9912 24.4819 75.9808 25.0552L75.5966 46.1849C75.5815 47.0184 74.6132 47.4685 73.9662 46.9429L68.5085 42.5085L45.1525 65.4237L34.5763 54.8475L57.9322 31.4915Z" stroke="#00A82D" stroke-width="2" stroke-linecap="round" stroke-linejoin="round"/>
</svg>
