<svg width="50" height="50" viewBox="0 0 50 50" fill="none" xmlns="http://www.w3.org/2000/svg">
<circle cx="25" cy="25" r="25" fill="#EFFFED"/>
<path d="M17.5508 26.6846H19.54C19.5127 27.432 19.3623 28.0632 19.0889 28.5781C18.8154 29.0885 18.4258 29.4759 17.9199 29.7402C17.4186 30.0046 16.8125 30.1367 16.1016 30.1367C15.5501 30.1367 15.0602 30.0456 14.6318 29.8633C14.2035 29.6764 13.8389 29.403 13.5381 29.043C13.2373 28.6829 13.0094 28.2386 12.8545 27.71C12.7041 27.1768 12.6289 26.5638 12.6289 25.8711V24.1826C12.6289 23.4899 12.7087 22.877 12.8682 22.3438C13.0322 21.8105 13.2646 21.3639 13.5654 21.0039C13.8708 20.6393 14.2376 20.3659 14.666 20.1836C15.099 19.9967 15.5866 19.9033 16.1289 19.9033C16.8535 19.9033 17.4596 20.04 17.9473 20.3135C18.4349 20.5869 18.8109 20.9857 19.0752 21.5098C19.3441 22.0293 19.5059 22.665 19.5605 23.417H17.5645C17.5508 22.943 17.4961 22.5716 17.4004 22.3027C17.3092 22.0293 17.1634 21.8379 16.9629 21.7285C16.7624 21.6146 16.4844 21.5576 16.1289 21.5576C15.8646 21.5576 15.6367 21.6055 15.4453 21.7012C15.2539 21.7923 15.0967 21.9404 14.9736 22.1455C14.8506 22.3506 14.7594 22.6195 14.7002 22.9521C14.6455 23.2848 14.6182 23.6904 14.6182 24.1689V25.8711C14.6182 26.3405 14.6432 26.7415 14.6934 27.0742C14.7435 27.4023 14.8232 27.6712 14.9326 27.8809C15.042 28.0905 15.1901 28.2432 15.377 28.3389C15.5684 28.4346 15.8099 28.4824 16.1016 28.4824C16.4388 28.4824 16.71 28.4323 16.915 28.332C17.1247 28.2318 17.2796 28.0518 17.3799 27.792C17.4801 27.5322 17.5371 27.1631 17.5508 26.6846ZM20.7979 20.0469H23.9902C24.6556 20.0469 25.223 20.1608 25.6924 20.3887C26.1618 20.6165 26.5218 20.9538 26.7725 21.4004C27.0231 21.847 27.1484 22.3984 27.1484 23.0547C27.1484 23.5924 27.0755 24.0527 26.9297 24.4355C26.7839 24.8138 26.5765 25.1305 26.3076 25.3857C26.0387 25.6364 25.7174 25.8369 25.3438 25.9873L24.7354 26.3496H22.1445L22.1377 24.6885H23.9355C24.209 24.6885 24.4346 24.6292 24.6123 24.5107C24.7946 24.3877 24.929 24.2168 25.0156 23.998C25.1068 23.7747 25.1523 23.515 25.1523 23.2188C25.1523 22.9043 25.1113 22.6354 25.0293 22.4121C24.9518 22.1842 24.8265 22.0111 24.6533 21.8926C24.4847 21.7695 24.2637 21.708 23.9902 21.708H22.8008V30H20.7979V20.0469ZM25.3164 30L23.4912 25.5635L25.5898 25.5566L27.4561 29.9043V30H25.3164ZM29.2539 20.0469H31.0107L33.041 26.8555L35.0645 20.0469H36.6162L33.7861 30H32.2891L29.2539 20.0469ZM28.543 20.0469H30.2178L30.4775 26.6094V30H28.543V20.0469ZM35.8506 20.0469H37.5322V30H35.6045V26.6094L35.8506 20.0469Z" fill="#00A82D"/>
</svg>
