<svg width="100" height="100" viewBox="0 0 100 100" fill="none" xmlns="http://www.w3.org/2000/svg">
<circle cx="50" cy="50" r="50" fill="#EFFFED"/>
<path d="M61.2 77.0284H67.1428C67.1428 78.6627 65.8057 79.9998 64.1714 79.9998C62.5371 79.9998 61.2 78.6627 61.2 77.0284ZM77.5428 74.0569V75.5427H50.8V74.0569L53.7714 71.0855V62.1712C53.7714 57.5655 56.7428 53.5541 61.2 52.2169V51.7712C61.2 50.1369 62.5371 48.7998 64.1714 48.7998C65.8057 48.7998 67.1428 50.1369 67.1428 51.7712V52.2169C71.6 53.5541 74.5714 57.5655 74.5714 62.1712V71.0855L77.5428 74.0569ZM71.6 62.1712C71.6 58.0112 68.3314 54.7427 64.1714 54.7427C60.0114 54.7427 56.7428 58.0112 56.7428 62.1712V72.5712H71.6V62.1712Z" fill="#00A82D"/>
<path d="M47.3353 72.3636H27.6301C24.5335 72.3636 22 70.0073 22 67.1273V30.4727C22 27.5927 24.5335 25.2364 27.6301 25.2364H30.4451V20H36.0752V25.2364H58.5955V20H64.2256V25.2364H67.0406C70.1371 25.2364 72.6707 27.5927 72.6707 30.4727V48.8C70.9817 47.7527 69.0111 46.7055 67.0406 46.4436V38.3273H27.6301V67.1273H47.3353V72.3636Z" fill="#00A82D"/>
</svg>
