<svg width="100" height="100" viewBox="0 0 100 100" fill="none" xmlns="http://www.w3.org/2000/svg">
<circle cx="50" cy="50" r="50" fill="#EFFFED"/>
<path d="M49.6052 53.995L49.6031 53.993C46.3826 51.0727 43.8304 48.7513 42.0659 46.5925C40.3178 44.4538 39.5 42.6586 39.5 40.8158C39.5 37.8168 41.8256 35.5 44.8158 35.5C46.5186 35.5 48.1778 36.3005 49.2541 37.5545L50.3924 38.8808L51.5306 37.5545C52.6069 36.3005 54.2661 35.5 55.9689 35.5C58.9591 35.5 61.2847 37.8168 61.2847 40.8158C61.2847 42.6586 60.4669 44.4538 58.7189 46.5925C56.9543 48.7513 54.4022 51.0727 51.1816 53.993L51.1795 53.995L50.3924 54.7115L49.6052 53.995Z" stroke="#00A82D" stroke-width="3"/>
<path d="M41 80C39.2 80 38 78.8 38 77V68H26C22.7 68 20 65.3 20 62V26C20 22.7 22.7 20 26 20H74C77.3 20 80 22.7 80 26V62C80 65.3 77.3 68 74 68H55.7L44.6 79.1C44 79.7 43.4 80 42.5 80H41ZM44 62V71.3L53.3 62H74V26H26V62H44Z" fill="#00A82D"/>
</svg>
