<svg width="50" height="50" viewBox="0 0 50 50" fill="none" xmlns="http://www.w3.org/2000/svg">
<circle cx="25" cy="25" r="25" fill="#EFFFED"/>
<path d="M34.5 15.5H16.5C15.2625 15.5 14.25 16.5125 14.25 17.75V31.25C14.25 32.4875 15.2625 33.5 16.5 33.5H34.5C35.7375 33.5 36.75 32.4875 36.75 31.25V17.75C36.75 16.5125 35.7375 15.5 34.5 15.5ZM34.5 31.25H16.5V17.75H34.5V31.25ZM16.5 11H34.5V13.25H16.5V11ZM16.5 35.75H34.5V38H16.5V35.75ZM25.5 24.5C27.0525 24.5 28.3125 23.24 28.3125 21.6875C28.3125 20.135 27.0525 18.875 25.5 18.875C23.9475 18.875 22.6875 20.135 22.6875 21.6875C22.6875 23.24 23.9475 24.5 25.5 24.5ZM25.5 20.5625C26.1188 20.5625 26.625 21.0688 26.625 21.6875C26.625 22.3062 26.1188 22.8125 25.5 22.8125C24.8813 22.8125 24.375 22.3062 24.375 21.6875C24.375 21.0688 24.8813 20.5625 25.5 20.5625ZM31.125 29C31.125 26.6375 27.4013 25.625 25.5 25.625C23.5988 25.625 19.875 26.6375 19.875 29V30.125H31.125V29ZM21.9113 28.4375C22.5975 27.875 24.195 27.3125 25.5 27.3125C26.8163 27.3125 28.4138 27.875 29.1 28.4375H21.9113Z" fill="#00A82D"/>
</svg>
