<svg width="11" height="11" viewBox="0 0 11 11" fill="none" xmlns="http://www.w3.org/2000/svg">
<path d="M10.6755 5.269L5.7255 0.319C5.51926 0.114444 5.24048 -0.000231453 4.95 3.50742e-07H1.1C0.808262 3.50742e-07 0.528473 0.115893 0.322183 0.322183C0.115893 0.528473 3.45362e-07 0.808262 3.45362e-07 1.1V4.95C-0.00011467 5.09515 0.0284992 5.23889 0.0841926 5.37293C0.139886 5.50697 0.221558 5.62867 0.3245 5.731L5.2745 10.681C5.48074 10.8856 5.75952 11.0002 6.05 11C6.34127 10.9988 6.62016 10.8821 6.8255 10.6755L10.6755 6.8255C10.8821 6.62016 10.9988 6.34127 11 6.05C11.0001 5.90485 10.9715 5.76111 10.9158 5.62707C10.8601 5.49303 10.7784 5.37133 10.6755 5.269ZM6.05 9.9L1.1 4.95V1.1H4.95L9.9 6.05M2.475 1.65C2.63817 1.65 2.79768 1.69839 2.93335 1.78904C3.06902 1.87969 3.17476 2.00854 3.2372 2.15929C3.29964 2.31004 3.31598 2.47592 3.28415 2.63595C3.25232 2.79598 3.17374 2.94298 3.05836 3.05836C2.94298 3.17374 2.79598 3.25232 2.63595 3.28415C2.47592 3.31598 2.31004 3.29964 2.15929 3.2372C2.00854 3.17476 1.87969 3.06902 1.78904 2.93335C1.69839 2.79768 1.65 2.63817 1.65 2.475C1.65 2.2562 1.73692 2.04635 1.89164 1.89164C2.04635 1.73692 2.2562 1.65 2.475 1.65Z" fill="#616874"/>
</svg>
