<svg width="460" height="460" viewBox="0 0 460 460" fill="none" xmlns="http://www.w3.org/2000/svg">
<path fill-rule="evenodd" clip-rule="evenodd" d="M409.049 374.356C335.279 465.849 204.397 487.004 105.559 423.411L36.5893 354.441C-27.0042 255.603 -5.84884 124.721 85.6443 50.9509C177.138 -22.8192 309.53 -15.7405 392.635 67.3649C475.741 150.47 482.819 282.862 409.049 374.356ZM25.6902 419.621L36.5797 354.443L105.546 423.411L40.3718 434.303C36.3073 434.982 32.1652 433.655 29.2514 430.741C26.3376 427.828 25.0111 423.686 25.6902 419.621Z" fill="white"/>
<path d="M122.609 246.079L158.16 315.403C158.332 315.739 158.815 315.734 158.98 315.394L201.781 227.587C201.948 227.244 202.436 227.243 202.604 227.585L245.846 315.393C246.014 315.732 246.497 315.735 246.667 315.397L333.928 142.218" stroke="url(#paint0_linear_3376_2864)" stroke-width="56" stroke-linecap="round"/>
<defs>
<linearGradient id="paint0_linear_3376_2864" x1="300.207" y1="73.8771" x2="246.703" y2="186.28" gradientUnits="userSpaceOnUse">
<stop stop-color="#92CC37"/>
<stop offset="1" stop-color="#00A82D"/>
</linearGradient>
</defs>
</svg>
