<svg width="100" height="100" viewBox="0 0 100 100" fill="none" xmlns="http://www.w3.org/2000/svg">
<circle cx="50" cy="50" r="50" fill="#EFFFED"/>
<path d="M67.8323 50.7714L72.0323 68.8571L56.1466 59.2571L40.2609 68.8571L44.4323 50.7714L30.4323 38.5714L48.918 37.0286L56.1466 20L63.3752 37.0286L81.8608 38.5714L67.8323 50.7714ZM21.8609 52.6571C22.4038 52.6571 22.9466 52.4857 23.4323 52.1714L32.5752 46.1429L28.0895 42.2571L20.2895 47.4C18.9723 48.2571 18.6066 50 19.4609 51.4286C20.0323 52.2 20.9466 52.6571 21.8609 52.6571ZM19.4609 78.7143C20.0323 79.5429 20.9466 80 21.8609 80C22.4038 80 22.9466 79.8571 23.4323 79.5429L35.1752 71.8L36.1466 67.8857L37.0323 63.7429L20.2895 74.7429C18.9723 75.6286 18.6066 77.4 19.4609 78.7143ZM20.2895 61.0857C18.9723 61.9429 18.6066 63.7143 19.4609 65.0286C20.0323 65.8857 20.9466 66.3143 21.8609 66.3143C22.4038 66.3143 22.9466 66.1714 23.4323 65.8571L38.918 55.7143L39.6895 52.3143L37.0609 50L20.2895 61.0857Z" fill="#00A82D"/>
</svg>
