<svg width="50" height="50" viewBox="0 0 50 50" fill="none" xmlns="http://www.w3.org/2000/svg">
<circle cx="25" cy="25" r="25" fill="#EFFFED"/>
<path d="M36.3 12H14.7C13.215 12 12 13.215 12 14.7V39L17.4 33.6H36.3C37.785 33.6 39 32.385 39 30.9V14.7C39 13.215 37.785 12 36.3 12ZM36.3 30.9H16.32L14.7 32.52V14.7H36.3V30.9Z" fill="#00A82D"/>
<path d="M25.3333 23C27.1133 23 30.6667 23.8933 30.6667 25.6667V27.6667H20V25.6667C20 23.8933 23.5533 23 25.3333 23ZM25.3333 17C26.0406 17 26.7189 17.281 27.219 17.781C27.719 18.2811 28 18.9594 28 19.6667C28 20.3739 27.719 21.0522 27.219 21.5523C26.7189 22.0524 26.0406 22.3333 25.3333 22.3333C24.6261 22.3333 23.9478 22.0524 23.4477 21.5523C22.9476 21.0522 22.6667 20.3739 22.6667 19.6667C22.6667 18.9594 22.9476 18.2811 23.4477 17.781C23.9478 17.281 24.6261 17 25.3333 17ZM25.3333 24.2667C23.3533 24.2667 21.2667 25.24 21.2667 25.6667V26.4H29.4V25.6667C29.4 25.24 27.3133 24.2667 25.3333 24.2667ZM25.3333 18.2667C24.962 18.2667 24.6059 18.4142 24.3434 18.6767C24.0808 18.9393 23.9333 19.2954 23.9333 19.6667C23.9333 20.038 24.0808 20.3941 24.3434 20.6566C24.6059 20.9192 24.962 21.0667 25.3333 21.0667C25.7046 21.0667 26.0607 20.9192 26.3233 20.6566C26.5858 20.3941 26.7333 20.038 26.7333 19.6667C26.7333 19.2954 26.5858 18.9393 26.3233 18.6767C26.0607 18.4142 25.7046 18.2667 25.3333 18.2667Z" fill="#00A82D"/>
</svg>
