<svg width="100" height="83" viewBox="0 0 100 83" fill="none" xmlns="http://www.w3.org/2000/svg">
<path d="M86.3574 1H14C6.8203 1 1 6.8203 1 14V69C1 76.1797 6.8203 82 14 82H86.3574C93.5371 82 99.3574 76.1797 99.3574 69V14C99.3574 6.8203 93.5371 1 86.3574 1Z" fill="#EFFFED" stroke="#EFFFED" stroke-width="1.25" stroke-linecap="round"/>
<path d="M89.6423 78.4907H17.3394C12.9521 78.4907 10.6921 73.2436 13.7062 70.0556L38.1932 44.1559C39.9553 42.2921 42.842 42.064 44.875 43.6278L60.4749 55.6277C62.2721 57.0102 64.7747 57.0102 66.572 55.6277L86.5937 40.2264C89.8818 37.697 94.6423 40.0411 94.6423 44.1895V73.4907C94.6423 76.2521 92.4037 78.4907 89.6423 78.4907Z" fill="#00A82D" stroke="#00A82D" stroke-width="1.25" stroke-linecap="round"/>
<circle cx="21.4942" cy="20.0896" r="11.2146" fill="#00A82D" stroke="#00A82D"/>
</svg>
