<svg width="30" height="31" viewBox="0 0 30 31" fill="none" xmlns="http://www.w3.org/2000/svg">
<circle cx="15" cy="15" r="15" fill="#9EA4B5"/>
<path d="M3 29.5L5.16667 23L8.77778 27.3333L3 29.5Z" fill="#9EA4B5" stroke="#9EA4B5"/>
<path d="M15.8672 14.8594H12.9688L12.9531 13.4297H15.4844C15.9115 13.4297 16.2734 13.3672 16.5703 13.2422C16.8724 13.112 17.1016 12.9271 17.2578 12.6875C17.4141 12.4427 17.4922 12.1484 17.4922 11.8047C17.4922 11.4245 17.4193 11.1146 17.2734 10.875C17.1276 10.6354 16.9036 10.4609 16.6016 10.3516C16.3047 10.2422 15.9245 10.1875 15.4609 10.1875H13.5625V20H11.6016V8.625H15.4609C16.0859 8.625 16.6432 8.6849 17.1328 8.80469C17.6276 8.92448 18.0469 9.11198 18.3906 9.36719C18.7396 9.61719 19.0026 9.9349 19.1797 10.3203C19.362 10.7057 19.4531 11.1641 19.4531 11.6953C19.4531 12.1641 19.3411 12.5938 19.1172 12.9844C18.8932 13.3698 18.5625 13.6849 18.125 13.9297C17.6875 14.1745 17.1432 14.3203 16.4922 14.3672L15.8672 14.8594ZM15.7812 20H12.3516L13.2344 18.4453H15.7812C16.224 18.4453 16.5938 18.3724 16.8906 18.2266C17.1875 18.0755 17.4089 17.8698 17.5547 17.6094C17.7057 17.3438 17.7812 17.0339 17.7812 16.6797C17.7812 16.3099 17.7161 15.9896 17.5859 15.7188C17.4557 15.4427 17.25 15.2318 16.9688 15.0859C16.6875 14.9349 16.3203 14.8594 15.8672 14.8594H13.6641L13.6797 13.4297H16.5469L16.9922 13.9688C17.6172 13.9896 18.1302 14.1276 18.5312 14.3828C18.9375 14.638 19.2396 14.9688 19.4375 15.375C19.6354 15.7812 19.7344 16.2188 19.7344 16.6875C19.7344 17.4115 19.5755 18.0182 19.2578 18.5078C18.9453 18.9974 18.4948 19.3698 17.9062 19.625C17.3177 19.875 16.6094 20 15.7812 20Z" fill="white"/>
</svg>
