<svg width="50" height="50" viewBox="0 0 50 50" fill="none" xmlns="http://www.w3.org/2000/svg">
<circle cx="25" cy="25" r="25" fill="#EFFFED"/>
<path d="M33.6 29.2H30.9V31.9H33.6V29.2ZM33.6 23.8H30.9V26.5H33.6V23.8ZM36.3 34.6H25.5V31.9H28.2V29.2H25.5V26.5H28.2V23.8H25.5V21.1H36.3V34.6ZM22.8 18.4H20.1V15.7H22.8V18.4ZM22.8 23.8H20.1V21.1H22.8V23.8ZM22.8 29.2H20.1V26.5H22.8V29.2ZM22.8 34.6H20.1V31.9H22.8V34.6ZM17.4 18.4H14.7V15.7H17.4V18.4ZM17.4 23.8H14.7V21.1H17.4V23.8ZM17.4 29.2H14.7V26.5H17.4V29.2ZM17.4 34.6H14.7V31.9H17.4V34.6ZM25.5 18.4V13H12V37.3H39V18.4H25.5Z" fill="#00A82D"/>
</svg>
