<svg width="16" height="16" viewBox="0 0 16 16" fill="none" xmlns="http://www.w3.org/2000/svg">
<path fill-rule="evenodd" clip-rule="evenodd" d="M9.33329 9.33398H10.6666C11.0346 9.33398 11.3333 9.63265 11.3333 10.0007V12.6673C11.3333 13.0353 11.0346 13.334 10.6666 13.334H9.33329C8.96529 13.334 8.66663 13.0353 8.66663 12.6673V10.0007C8.66663 9.63265 8.96529 9.33398 9.33329 9.33398Z" stroke="#9EA4B5" stroke-linecap="round" stroke-linejoin="round"/>
<path d="M14 11.3333H11.3334" stroke="#9EA4B5" stroke-linecap="round" stroke-linejoin="round"/>
<path d="M8.66667 11.3353H2" stroke="#9EA4B5" stroke-linecap="round" stroke-linejoin="round"/>
<path fill-rule="evenodd" clip-rule="evenodd" d="M6.66663 6.66797H5.33329C4.96529 6.66797 4.66663 6.3693 4.66663 6.0013V3.33464C4.66663 2.96664 4.96529 2.66797 5.33329 2.66797H6.66663C7.03463 2.66797 7.33329 2.96664 7.33329 3.33464V6.0013C7.33329 6.3693 7.03463 6.66797 6.66663 6.66797Z" stroke="#9EA4B5" stroke-linecap="round" stroke-linejoin="round"/>
<path d="M2 4.66732H4.66667" stroke="#9EA4B5" stroke-linecap="round" stroke-linejoin="round"/>
<path d="M7.33337 4.66732H14" stroke="#9EA4B5" stroke-linecap="round" stroke-linejoin="round"/>
</svg>
