<svg width="60" height="60" viewBox="0 0 60 60" fill="none" xmlns="http://www.w3.org/2000/svg">
<circle cx="30" cy="30" r="30" fill="#F0F2F8"/>
<path d="M27.8167 24.1649L17.139 29.104C16.431 29.4315 15.8822 30.0268 15.6131 30.759C15.3441 31.4912 15.3769 32.3003 15.7044 33.0083L18.174 38.3471C18.5015 39.0551 19.0968 39.604 19.829 39.873C20.5611 40.142 21.3702 40.1092 22.0782 39.7817L23.4129 39.1643L25.8825 44.5032C26.0462 44.8571 26.3439 45.1316 26.71 45.2661C27.0761 45.4006 27.4806 45.3842 27.8346 45.2205L30.504 43.9857C30.858 43.8219 31.1324 43.5243 31.267 43.1582C31.4015 42.7921 31.3851 42.3876 31.2213 42.0336L28.7517 36.6947L32.7559 34.8425L41.899 37.0944L32.0206 15.739L27.8167 24.1649ZM42.966 23.6384C44.0218 25.9208 43.6974 28.5823 42.0988 30.5208L37.1597 19.8431C39.6648 19.8995 41.9164 21.3694 42.966 23.6384Z" fill="#3F43FD"/>
</svg>
