<svg width="60" height="60" viewBox="0 0 60 60" fill="none" xmlns="http://www.w3.org/2000/svg">
<circle cx="30" cy="30" r="29" fill="#F0F2F8" stroke="#3F43FD" stroke-width="2"/>
<path d="M39.6 40.2C39.6 41.16 38.76 42 37.8 42H31.2C30.72 42 30.36 41.88 30 41.52L25.2 36.48L26.04 35.52C26.28 35.28 26.64 35.16 27 35.16H27.24L30 37.2V26.4C30 25.68 30.48 25.2 31.2 25.2C31.92 25.2 32.4 25.68 32.4 26.4V31.8L33.84 31.92L38.52 34.56C39.12 34.8 39.6 35.52 39.6 36.12V40.2ZM39.6 18H20.4C19.08 18 18 19.08 18 20.4V30C18 31.32 19.08 32.4 20.4 32.4H25.2V30H20.4V20.4H39.6V30H37.2V32.4H39.6C40.92 32.4 42 31.32 42 30V20.4C42 19.08 40.92 18 39.6 18Z" fill="#3F43FD"/>
</svg>
