<svg width="60" height="60" viewBox="0 0 60 60" fill="none" xmlns="http://www.w3.org/2000/svg">
<circle cx="30" cy="30" r="29" fill="#F0F2F8" stroke="#3F43FD" stroke-width="2"/>
<rect x="16" y="16" width="27.13" height="27.13" rx="1.633" fill="#3F43FD"/>
<path d="M31.2979 25.4894V23.5957C31.2979 23.2667 31.0311 23 30.7021 23H23.5957C23.2667 23 23 23.2667 23 23.5957V35.4043C23 35.7333 23.2667 36 23.5957 36H30.7021C31.0311 36 31.2979 35.7333 31.2979 35.4043V33.5106" stroke="white" stroke-width="1.8" stroke-linecap="round"/>
<path d="M28.8086 28.7618C28.4772 28.7618 28.2086 29.0304 28.2086 29.3618C28.2086 29.6932 28.4772 29.9618 28.8086 29.9618V28.7618ZM38.6371 29.7861C38.8714 29.5518 38.8714 29.1719 38.6371 28.9376L34.8187 25.1192C34.5844 24.8849 34.2045 24.8849 33.9702 25.1192C33.7359 25.3535 33.7359 25.7334 33.9702 25.9677L37.3643 29.3618L33.9702 32.7559C33.7359 32.9902 33.7359 33.3701 33.9702 33.6045C34.2045 33.8388 34.5844 33.8388 34.8187 33.6045L38.6371 29.7861ZM28.8086 29.9618L38.2128 29.9618V28.7618L28.8086 28.7618V29.9618Z" fill="white"/>
</svg>
