<svg width="60" height="60" viewBox="0 0 60 60" fill="none" xmlns="http://www.w3.org/2000/svg">
<circle cx="30" cy="30" r="30" fill="#F0F2F8"/>
<path d="M14 21.8818H19.6214C19.6214 26.5054 24.6441 26.3058 24.6441 21.8818H30.4984V27.5033C26.0744 27.5033 26.0744 32.6258 30.4984 32.6258V38.2139H24.6441C24.6441 42.2388 19.6214 42.3385 19.6214 38.2139H14V21.8818Z" fill="#3F43FD"/>
<path d="M46.8607 21.8816L46.8609 27.3699C42.2374 27.3986 42.4682 32.42 46.8921 32.3925L46.9284 38.2467L41.3071 38.2816C41.2796 33.8577 36.1253 33.7899 36.1528 38.2138L30.4981 38.2138L30.4981 32.6256C26.2072 32.7586 25.9082 27.5031 30.4981 27.5031L30.4983 21.8816L36.4189 21.8816C36.4189 18.123 41.1092 18.0897 41.109 21.8816L46.8607 21.8816Z" fill="#3F43FD" fill-opacity="0.7"/>
</svg>
