<svg width="60" height="60" viewBox="0 0 60 60" fill="none" xmlns="http://www.w3.org/2000/svg">
<circle cx="30" cy="30" r="30" fill="#F0F2F8"/>
<path d="M21 20H43.5V35H21V20ZM32.25 23.75C33.2446 23.75 34.1984 24.1451 34.9017 24.8483C35.6049 25.5516 36 26.5054 36 27.5C36 28.4946 35.6049 29.4484 34.9017 30.1517C34.1984 30.8549 33.2446 31.25 32.25 31.25C31.2554 31.25 30.3016 30.8549 29.5983 30.1517C28.8951 29.4484 28.5 28.4946 28.5 27.5C28.5 26.5054 28.8951 25.5516 29.5983 24.8483C30.3016 24.1451 31.2554 23.75 32.25 23.75ZM26 22.5C26 23.163 25.7366 23.7989 25.2678 24.2678C24.7989 24.7366 24.163 25 23.5 25V30C24.163 30 24.7989 30.2634 25.2678 30.7322C25.7366 31.2011 26 31.837 26 32.5H38.5C38.5 31.837 38.7634 31.2011 39.2322 30.7322C39.7011 30.2634 40.337 30 41 30V25C40.337 25 39.7011 24.7366 39.2322 24.2678C38.7634 23.7989 38.5 23.163 38.5 22.5H26ZM16 25H18.5V37.5H38.5V40H16V25Z" fill="#3F43FD"/>
<path d="M18 15L16 17L43 44L45 42L18 15Z" fill="#3F43FD"/>
<path d="M20 13L18 15L45 42L47 40L20 13Z" fill="#F0F2F8"/>
</svg>
