<svg width="60" height="60" viewBox="0 0 60 60" fill="none" xmlns="http://www.w3.org/2000/svg">
<circle cx="30" cy="30" r="30" fill="#F0F2F8"/>
<path d="M30 14C30.7233 14 31.417 14.2873 31.9285 14.7988C32.4399 15.3103 32.7273 16.004 32.7273 16.7273C32.7273 17.7364 32.1818 18.6227 31.3636 19.0864V20.8182H32.7273C35.2589 20.8182 37.6868 21.8239 39.4769 23.614C41.267 25.4041 42.2727 27.832 42.2727 30.3636H43.6364C43.998 30.3636 44.3449 30.5073 44.6006 30.763C44.8563 31.0188 45 31.3656 45 31.7273V35.8182C45 36.1798 44.8563 36.5267 44.6006 36.7824C44.3449 37.0382 43.998 37.1818 43.6364 37.1818H42.2727V38.5455C42.2727 39.2688 41.9854 39.9625 41.4739 40.4739C40.9625 40.9854 40.2688 41.2727 39.5455 41.2727H20.4545C19.7312 41.2727 19.0375 40.9854 18.5261 40.4739C18.0146 39.9625 17.7273 39.2688 17.7273 38.5455V37.1818H16.3636C16.002 37.1818 15.6551 37.0382 15.3994 36.7824C15.1437 36.5267 15 36.1798 15 35.8182V31.7273C15 31.3656 15.1437 31.0188 15.3994 30.763C15.6551 30.5073 16.002 30.3636 16.3636 30.3636H17.7273C17.7273 27.832 18.733 25.4041 20.5231 23.614C22.3132 21.8239 24.7411 20.8182 27.2727 20.8182H28.6364V19.0864C27.8182 18.6227 27.2727 17.7364 27.2727 16.7273C27.2727 16.004 27.5601 15.3103 28.0715 14.7988C28.583 14.2873 29.2767 14 30 14ZM23.8636 29C22.9595 29 22.0924 29.3592 21.453 29.9985C20.8137 30.6378 20.4545 31.5049 20.4545 32.4091C20.4545 33.3132 20.8137 34.1804 21.453 34.8197C22.0924 35.459 22.9595 35.8182 23.8636 35.8182C24.7678 35.8182 25.6349 35.459 26.2742 34.8197C26.9136 34.1804 27.2727 33.3132 27.2727 32.4091C27.2727 31.5049 26.9136 30.6378 26.2742 29.9985C25.6349 29.3592 24.7678 29 23.8636 29ZM36.1364 29C35.2322 29 34.3651 29.3592 33.7258 29.9985C33.0864 30.6378 32.7273 31.5049 32.7273 32.4091C32.7273 33.3132 33.0864 34.1804 33.7258 34.8197C34.3651 35.459 35.2322 35.8182 36.1364 35.8182C37.0405 35.8182 37.9076 35.459 38.547 34.8197C39.1863 34.1804 39.5455 33.3132 39.5455 32.4091C39.5455 31.5049 39.1863 30.6378 38.547 29.9985C37.9076 29.3592 37.0405 29 36.1364 29Z" fill="#3F43FD"/>
</svg>
