<svg width="60" height="60" viewBox="0 0 60 60" fill="none" xmlns="http://www.w3.org/2000/svg">
<circle cx="30" cy="30" r="30" fill="#F0F2F8"/>
<path d="M17.7318 15.9955L16 17.7273L21.3045 23.0318V42.2727C21.3045 42.996 21.5919 43.6897 22.1033 44.2012C22.6148 44.7127 23.3085 45 24.0318 45H37.6682C38.3915 45 39.0852 44.7127 39.5967 44.2012C40.1081 43.6897 40.3955 42.996 40.3955 42.2727V42.1227L42.9046 44.6318L44.6364 42.9M37.6682 39.5455H24.0318V25.7591L37.6682 39.3955V39.5455ZM37.6682 20.4545V32.4545L40.3955 35.1818V17.7273C40.3955 17.004 40.1081 16.3103 39.5967 15.7988C39.0852 15.2873 38.3915 15 37.6682 15H24.0318C23.05 15 22.1227 15.5045 21.6318 16.3636L25.7227 20.4545H37.6682Z" fill="#3F43FD"/>
</svg>
