<svg width="32" height="32" viewBox="0 0 32 32" fill="none" xmlns="http://www.w3.org/2000/svg">
<rect width="32" height="32" rx="8" fill="white"/>
<rect x="6" y="6" width="20" height="20" fill="white"/>
<path d="M16.5 24L14.3767 20.6028C14.2697 20.4315 14.4551 20.2276 14.6358 20.3179L16 21V15.2769C16 14.2769 16.5 14.2769 16.5 15.2769V19H19L21.236 20.1974C21.3986 20.2844 21.5 20.4538 21.5 20.6381V23.5C21.5 23.7761 21.2761 24 21 24H16.5Z" fill="#9EA4B5"/>
<path d="M12.5 17H9.5C9.22386 17 9 16.7761 9 16.5V9.5C9 9.22386 9.22386 9 9.5 9H22.5C22.7761 9 23 9.22386 23 9.5V16.5C23 16.7761 22.7761 17 22.5 17H20.5M16.5 24L14.3767 20.6028C14.2697 20.4315 14.4551 20.2276 14.6358 20.3179L16 21V15.2769C16 14.2769 16.5 14.2769 16.5 15.2769V19H19L21.236 20.1974C21.3986 20.2844 21.5 20.4538 21.5 20.6381V23.5C21.5 23.7761 21.2761 24 21 24H16.5Z" stroke="#9EA4B5" stroke-width="1.25" stroke-linecap="round"/>
</svg>
